<svg width="267" height="444" viewBox="0 0 267 444" fill="none" xmlns="http://www.w3.org/2000/svg">
<path d="M231.479 229.503C228.84 228.558 225.801 229.589 224.677 231.811C216.301 248.379 204.701 258.338 190.196 261.408C164.585 266.831 137.02 249.562 134.116 247.677C133.838 246.833 133.558 245.973 133.274 245.083C132.809 243.024 132.574 241.746 132.574 241.746C132.574 241.746 109.895 236.028 105.56 242.782C105.56 242.782 105.488 243.669 105.271 245.153C104.929 245.251 104.593 245.377 104.27 245.54C102.257 246.56 55.0119 271.252 56.1076 335.55C56.1481 337.942 58.4627 339.858 61.2899 339.858C61.3162 339.858 61.3405 339.858 61.3668 339.857C64.2282 339.823 66.5165 337.838 66.476 335.424C66.2417 321.685 68.3722 309.953 71.7758 299.988C74.5841 308.286 82.1139 316.999 94.7633 323.081C96.6411 335.025 103.207 378.406 103.493 402.715C103.521 405.114 105.836 407.042 108.675 407.042C108.693 407.042 108.711 407.042 108.728 407.042C111.591 407.018 113.89 405.042 113.861 402.628C113.599 380.399 108.404 343.85 105.878 327.301C109.839 328.452 114.144 329.376 118.803 330.019C126.362 331.061 132.998 330.987 138.787 330.117C136.147 347.714 131.479 381.586 131.23 402.628C131.202 405.042 133.501 407.018 136.364 407.042C136.38 407.042 136.399 407.042 136.417 407.042C139.254 407.042 141.57 405.114 141.599 402.715C141.858 380.691 147.275 342.991 149.688 327.214C164.401 321.268 170.623 309.132 169.772 300.31C168.467 286.798 163.112 280.348 150.869 277.582C147.518 276.825 143.789 272.878 138.862 260.79C148.665 265.56 163.665 271.206 179.745 271.206C184.003 271.206 188.337 270.81 192.671 269.897C210.514 266.136 224.491 254.475 234.215 235.237C235.337 233.017 234.112 230.449 231.479 229.503ZM94.8112 270.481C94.8112 270.481 91.1645 271.035 86.6952 272.812C92.1667 266.029 97.7523 261.151 102.05 257.937C100.441 262.289 98.1283 266.838 94.8112 270.481Z" fill="#728AB5"/>
<path opacity="0.5" d="M231.479 229.503C228.84 228.558 225.801 229.589 224.677 231.811C216.301 248.379 204.701 258.338 190.196 261.408C164.585 266.831 137.02 249.562 134.116 247.677C133.838 246.833 133.558 245.973 133.274 245.083C132.809 243.024 132.574 241.746 132.574 241.746C132.574 241.746 109.895 236.028 105.56 242.782C105.56 242.782 105.488 243.669 105.271 245.153C104.929 245.251 104.593 245.377 104.27 245.54C102.257 246.56 55.0119 271.252 56.1076 335.55C56.1481 337.942 58.4627 339.858 61.2899 339.858C61.3162 339.858 61.3405 339.858 61.3668 339.857C64.2282 339.823 66.5165 337.838 66.476 335.424C66.2417 321.685 68.3722 309.953 71.7758 299.988C74.5841 308.286 82.1139 316.999 94.7633 323.081C96.6411 335.025 103.207 378.406 103.493 402.715C103.521 405.114 105.836 407.042 108.675 407.042C108.693 407.042 108.711 407.042 108.728 407.042C111.591 407.018 113.89 405.042 113.861 402.628C113.599 380.399 108.404 343.85 105.878 327.301C109.839 328.452 114.144 329.376 118.803 330.019C126.362 331.061 132.998 330.987 138.787 330.117C136.147 347.714 131.479 381.586 131.23 402.628C131.202 405.042 133.501 407.018 136.364 407.042C136.38 407.042 136.399 407.042 136.417 407.042C139.254 407.042 141.57 405.114 141.599 402.715C141.858 380.691 147.275 342.991 149.688 327.214C164.401 321.268 170.623 309.132 169.772 300.31C168.467 286.798 163.112 280.348 150.869 277.582C147.518 276.825 143.789 272.878 138.862 260.79C148.665 265.56 163.665 271.206 179.745 271.206C184.003 271.206 188.337 270.81 192.671 269.897C210.514 266.136 224.491 254.475 234.215 235.237C235.337 233.017 234.112 230.449 231.479 229.503ZM94.8112 270.481C94.8112 270.481 91.1645 271.035 86.6952 272.812C92.1667 266.029 97.7523 261.151 102.05 257.937C100.441 262.289 98.1283 266.838 94.8112 270.481Z" fill="url(#paint0_linear_56_221)"/>
<path d="M120.54 239.736C120.54 239.736 55.0434 233.699 30.083 190.93C5.12257 148.161 -19.7618 46.6317 23.7858 23.0969C67.3333 -0.437938 157.02 -11.3643 197.457 16.6072C237.894 44.5788 219.75 175.258 187.607 209.785C155.465 244.313 120.54 239.736 120.54 239.736Z" fill="#7CA4BC"/>
<path d="M120.539 239.736C120.539 239.736 58.567 226.453 35.1967 186.409C11.8265 146.365 -11.4725 51.3038 29.3007 29.2684C70.0739 7.23304 154.047 -2.99726 191.908 23.1922C229.769 49.3817 212.78 171.736 182.686 204.063C152.591 236.391 120.539 239.736 120.539 239.736Z" fill="#9CC0D3"/>
<path d="M119.264 224.733C119.264 224.733 61.9726 219.452 40.1389 182.041C18.3052 144.629 -3.46219 55.8181 34.6304 35.2314C72.7229 14.6448 151.176 5.08707 186.547 29.5547C221.919 54.0223 206.047 168.332 177.931 198.534C149.815 228.737 119.264 224.733 119.264 224.733Z" fill="#B7C3C9"/>
<path d="M172.831 37.9375C180.453 37.2768 191.904 35.5574 192.483 31.1696C193.353 24.5663 165.068 11.7266 161.152 16.8626C158.367 20.5153 160.343 29.888 162.93 34.9552C161.012 37.8376 159.161 40.6043 157.519 43.0407C129.711 29.1806 90.024 35.8917 62.8662 51.5681C61.3089 49.256 59.582 46.6743 57.7947 43.9877C60.3824 38.9204 62.3581 29.5479 59.5729 25.8951C55.6564 20.7592 27.372 33.5988 28.2423 40.2021C28.8206 44.59 40.2719 46.3092 47.8942 46.9699C49.1032 48.7897 50.4415 50.7987 51.7864 52.8078C52.7236 54.2081 53.6562 55.5954 54.5573 56.93C46.5731 62.7016 40.2361 69.3116 36.4413 76.3498C15.7043 114.811 40.0702 152.834 71.1756 186.488C102.281 220.141 109.539 236.749 109.539 236.749C109.539 236.749 110.404 238.866 111.816 241.351H127.226C127.736 240.021 128.235 238.494 128.721 236.749C136.497 208.778 210.631 122.241 182.118 67.1718C178.006 59.2293 172.474 52.978 165.968 48.1948C166.928 46.7727 167.933 45.2787 168.939 43.7755C170.284 41.7663 171.622 39.7572 172.831 37.9375Z" fill="#BB91C8"/>
<path opacity="0.3" d="M172.831 37.9375C180.453 37.2768 191.904 35.5574 192.483 31.1696C193.353 24.5663 165.068 11.7266 161.152 16.8626C158.367 20.5153 160.343 29.888 162.93 34.9552C161.012 37.8376 159.161 40.6043 157.519 43.0407C129.711 29.1806 90.024 35.8917 62.8662 51.5681C61.3089 49.256 59.582 46.6743 57.7947 43.9877C60.3824 38.9204 62.3581 29.5479 59.5729 25.8951C55.6564 20.7592 27.372 33.5988 28.2423 40.2021C28.8206 44.59 40.2719 46.3092 47.8942 46.9699C49.1032 48.7897 50.4415 50.7987 51.7864 52.8078C52.7236 54.2081 53.6562 55.5954 54.5573 56.93C46.5731 62.7016 40.2361 69.3116 36.4413 76.3498C15.7043 114.811 40.0702 152.834 71.1756 186.488C102.281 220.141 109.539 236.749 109.539 236.749C109.539 236.749 110.404 238.866 111.816 241.351H127.226C127.736 240.021 128.235 238.494 128.721 236.749C136.497 208.778 210.631 122.241 182.118 67.1718C178.006 59.2293 172.474 52.978 165.968 48.1948C166.928 46.7727 167.933 45.2787 168.939 43.7755C170.284 41.7663 171.622 39.7572 172.831 37.9375Z" fill="url(#paint1_linear_56_221)"/>
<path opacity="0.5" d="M122.694 156.937C122.694 156.937 110.406 151.816 116.535 133.023C122.664 114.23 133.292 92.377 152.473 96.3104C171.655 100.244 186.43 115.171 166.989 136.99C147.548 158.809 127.513 161.038 122.694 156.937Z" fill="url(#paint2_linear_56_221)"/>
<path opacity="0.5" d="M76.3589 174.354L80.5857 173.232C80.5857 173.232 88.8192 179.887 99.3985 182.41C109.978 184.933 115.854 183.977 121.429 182.41C127.005 180.843 134.424 178.598 134.424 178.598C134.424 178.598 133.983 181.876 127.417 183.964C120.85 186.052 117.233 185.178 116.535 187.363C115.838 189.549 109.711 196.833 106.121 196.105C102.532 195.376 101.289 188.529 101.289 188.529C101.289 188.529 91.4725 193.045 88.362 191.151C85.2515 189.257 86.8067 184.963 86.8067 184.963C86.8067 184.963 80.0672 187.997 79.5488 184.694C79.0305 181.39 83.6363 179.642 82.1111 178.04C80.5858 176.437 76.7437 173.16 76.3589 174.354Z" fill="url(#paint3_linear_56_221)"/>
<path d="M116.535 183.88C116.535 183.88 113.522 189.535 108.676 193.25C103.83 196.965 104.089 184.131 104.089 184.131C104.089 184.131 92.1656 191.111 90.0919 188.903C88.0181 186.694 91.8729 179.997 91.8729 179.997C91.8729 179.997 84.9076 184.728 83.6116 182.105C82.3155 179.483 85.7501 176.787 85.7501 176.787C85.7501 176.787 96.3199 186.093 116.535 183.88Z" fill="#E5E8EB"/>
<path d="M137.901 177.288C137.609 176.873 136.972 176.737 136.481 176.983C104.43 193.023 82.695 173.607 81.7839 172.772C81.7633 172.754 81.7351 172.746 81.7132 172.729C82.6409 171.722 83.3533 170.528 83.3533 169.212C83.3533 168.729 82.8896 168.338 82.3165 168.338C81.7434 168.338 81.2797 168.729 81.2797 169.212C81.2797 171.476 77.7277 173.691 76.3586 174.353C75.8605 174.594 75.6904 175.128 75.9739 175.547C76.1663 175.828 76.5146 175.986 76.8751 175.986C77.0492 175.986 77.2254 175.95 77.3874 175.871C77.5051 175.815 78.9057 175.126 80.3202 174.01C81.0219 174.635 92.9744 184.962 111.694 184.962C119.299 184.962 128.019 183.252 137.539 178.486C138.033 178.24 138.195 177.703 137.901 177.288Z" fill="#3D334D"/>
<path opacity="0.5" d="M45.6784 131.93C45.6784 131.93 32.7431 118.746 47.8943 103.594C63.0456 88.4432 76.5117 95.6612 82.7391 101.995C88.9666 108.329 113.841 140.453 94.146 155.312C74.4509 170.172 45.6784 131.93 45.6784 131.93Z" fill="url(#paint4_linear_56_221)"/>
<path d="M45.7398 111.183C45.7398 111.183 65.135 89.6305 83.3195 106.058C94.6892 116.329 110.363 150.055 92.8564 157.883C74.7281 165.989 28.7386 129.076 45.7398 111.183Z" fill="#354157"/>
<path d="M171.494 111.183C171.494 111.183 152.098 89.6305 133.914 106.058C122.544 116.329 106.871 150.055 124.377 157.883C142.505 165.989 188.495 129.076 171.494 111.183Z" fill="#354157"/>
<g opacity="0.7">
<path d="M45.8125 111.183C45.8125 111.183 65.2078 89.6305 83.3922 106.058C94.762 116.329 110.435 150.055 92.9292 157.883C74.8008 165.989 28.8114 129.076 45.8125 111.183Z" fill="url(#paint5_linear_56_221)"/>
<path d="M171.566 111.183C171.566 111.183 152.17 89.6305 133.986 106.058C122.616 116.329 106.943 150.055 124.449 157.883C142.578 165.989 188.567 129.076 171.566 111.183Z" fill="url(#paint6_linear_56_221)"/>
</g>
<path d="M117.835 424.422C117.835 424.422 115.317 408.699 115.97 404.025C116.624 399.35 113.193 400.947 107.329 400.512C101.465 400.076 97.4726 398.783 97.987 402.633C98.5012 406.483 100.07 424.836 96.9384 427.357C93.8068 429.879 69.2908 433.795 71.8199 441.67C73.4557 446.763 108.454 442.517 117.502 438.35C126.551 434.183 117.835 424.422 117.835 424.422Z" fill="#424C78"/>
<path d="M127.257 424.422C127.257 424.422 129.775 408.699 129.121 404.025C128.467 399.35 131.898 400.947 137.762 400.512C143.626 400.076 147.619 398.783 147.105 402.633C146.59 406.483 145.022 424.836 148.153 427.357C151.285 429.879 175.801 433.795 173.272 441.67C171.636 446.763 136.638 442.517 127.589 438.35C118.54 434.183 127.257 424.422 127.257 424.422Z" fill="#424C78"/>
<path d="M50.9721 308.724C52.2922 308.477 69.2431 308.707 73.3361 314.968C75.9976 319.039 68.9741 327.615 68.9741 339.858C68.9741 339.858 73.6262 350.459 78.6135 355.776C83.601 361.094 75.8369 366.265 69.4351 359.427C64.2763 353.916 60.1843 341.545 60.1843 341.545L50.3854 337.414C50.3854 337.414 49.6518 308.971 50.9721 308.724Z" fill="#424C78"/>
<path d="M50.3563 336.178C50.3563 336.178 40.6497 361.578 50.1824 374.715C50.1824 374.715 57.569 380.543 61.0939 378.843C61.0939 378.843 65.0545 384.284 71.5089 383.913C77.9632 383.542 65.2013 358.809 65.788 351.018C66.3748 343.227 55.9597 335.084 54.7863 335.26C53.6128 335.436 52.7327 335.26 52.7327 335.26L50.3563 336.178Z" fill="#424C78"/>
<path d="M119.922 315.411C119.426 315.411 118.989 315.11 118.902 314.684C115.779 299.217 113.187 283.591 118.671 277.306C119.752 275.778 119.42 259.678 118.47 245.003C118.438 244.521 118.877 244.109 119.448 244.083C120.1 244.034 120.51 244.427 120.54 244.908C121.01 252.159 122.385 275.999 120.339 278.343C115.339 284.075 118.031 299.955 120.947 314.39C121.042 314.867 120.663 315.318 120.098 315.398C120.04 315.407 119.981 315.411 119.922 315.411Z" fill="#424C78"/>
<path opacity="0.6" d="M151.927 284.351C151.927 284.351 127.947 283.592 116.535 280.415C105.124 277.238 91.3993 271.354 85.474 280.415C79.5486 289.476 79.8184 315.192 118.7 318.613C157.582 322.034 178.056 286.489 151.927 284.351Z" fill="url(#paint7_linear_56_221)"/>
<path d="M105.424 244.027C105.424 244.027 108.831 249.279 119.506 251.027C130.181 252.776 133.259 245.013 133.259 245.013C133.259 245.013 106.632 243.173 105.424 244.027Z" fill="url(#paint8_linear_56_221)"/>
<path d="M104.216 244.881C101.512 244.722 99.385 242.817 99.3985 240.5C99.4129 238.086 101.745 236.139 104.608 236.15L134.455 236.275C137.337 236.303 139.627 238.256 139.614 240.668C139.599 243.082 137.268 245.029 134.404 245.018L104.557 244.893C104.442 244.891 104.328 244.888 104.216 244.881Z" fill="#424C78"/>
<path d="M104 273.099C104 273.099 113.496 277.397 119.506 279.509C125.515 281.621 137.1 278.753 138.047 276.472C138.994 274.191 125.938 275.503 119.506 273.099C113.073 270.695 97.5202 268.947 104 273.099Z" fill="url(#paint9_linear_56_221)"/>
<path d="M71.7758 299.988C71.7758 299.988 62.3912 279.738 86.6952 272.813L89.2571 269.786C89.2571 269.786 73.832 272.225 69.9939 284.025C66.1558 295.826 69.9939 304.348 69.9939 304.348L71.7758 299.988Z" fill="url(#paint10_linear_56_221)"/>
<path opacity="0.6" d="M61.2383 305.795C61.2383 305.795 63.8232 278.343 92.3365 256.709C92.3365 256.709 99.8537 248.405 103.742 249.498C107.63 250.59 99.076 256.927 94.6694 260.642C90.2627 264.357 80.2046 272.917 80.2046 272.917C80.2046 272.917 72.1181 277.688 69.7851 285.992C67.4523 294.296 69.326 305.26 66.6746 307.626C64.0232 309.992 60.8257 308.431 61.2383 305.795Z" fill="url(#paint11_linear_56_221)"/>
<path opacity="0.6" d="M108.676 267.55C108.676 267.55 117.193 269.517 120.274 270.828C123.355 272.139 132.773 272.722 134.156 271.119C135.538 269.517 131.132 258.882 130.786 255.021C130.44 251.16 122.954 254.74 118.964 253.059C114.974 251.379 107.198 250.505 107.457 254.366C107.716 258.226 103.588 265.656 108.676 267.55Z" fill="url(#paint12_linear_56_221)"/>
<path d="M94.7637 323.081L105.879 327.301L107.064 335.257L96.6251 333.194L94.7637 323.081Z" fill="url(#paint13_linear_56_221)"/>
<path d="M138.787 330.117L149.688 327.214L148.217 337.116L137.229 340.847L138.787 330.117Z" fill="url(#paint14_linear_56_221)"/>
<path opacity="0.6" d="M142.105 346.087C142.105 346.087 135.037 362.695 134.423 380.396C133.81 398.096 136.761 399.408 138.915 394.163C141.068 388.918 147.03 339.313 142.105 346.087Z" fill="url(#paint15_linear_56_221)"/>
<path opacity="0.6" d="M107.064 354.391C107.217 355.191 114.11 395.627 110.481 396.862C106.852 398.096 107.464 382.799 106.121 373.84C104.778 364.88 105.839 348.01 107.064 354.391Z" fill="url(#paint16_linear_56_221)"/>
<path d="M129.403 237.479C129.403 237.479 102.2 236.904 102.452 239.486C102.705 242.068 113.522 241.554 123.148 241.35C132.773 241.147 135.105 237.533 129.403 237.479Z" fill="url(#paint17_linear_56_221)"/>
<g opacity="0.6">
<path d="M115.97 404.025C116.624 399.35 113.193 400.947 107.329 400.512C101.465 400.077 97.4725 398.783 97.9867 402.633C98.5011 406.483 100.07 424.836 96.9383 427.357C93.8067 429.879 69.2906 433.795 71.8199 441.67C73.4558 446.763 108.454 442.518 117.502 438.35C126.551 434.183 117.835 424.423 117.835 424.423C117.835 424.423 115.316 408.699 115.97 404.025Z" fill="url(#paint18_linear_56_221)"/>
<path d="M148.153 427.357C145.022 424.836 146.59 406.483 147.105 402.633C147.619 398.783 143.626 400.077 137.762 400.512C131.898 400.947 128.467 399.35 129.121 404.025C129.775 408.699 127.257 424.422 127.257 424.422C127.257 424.422 118.54 434.183 127.589 438.35C136.638 442.517 171.636 446.763 173.272 441.67C175.801 433.795 151.285 429.879 148.153 427.357Z" fill="url(#paint19_linear_56_221)"/>
<path d="M66.1914 354.939C67.1995 356.631 68.2886 358.202 69.4353 359.427C75.8369 366.265 83.6012 361.094 78.6138 355.776C73.6262 350.459 68.9743 339.858 68.9743 339.858C68.9743 327.615 75.9979 319.039 73.3363 314.968C69.2434 308.707 52.2925 308.477 50.9722 308.724C49.8181 308.94 50.2335 330.71 50.3563 336.178C50.3555 336.181 40.65 361.578 50.1824 374.715C50.1824 374.715 57.569 380.543 61.0939 378.843C61.0939 378.843 65.0545 384.284 71.5088 383.913C77.104 383.591 68.2634 364.969 66.1914 354.939Z" fill="url(#paint20_linear_56_221)"/>
</g>
<path opacity="0.6" d="M159.04 442.02C159.04 442.02 171.717 442.858 170.445 439.107C169.174 435.355 151.091 427.598 147.634 429.054C144.178 430.511 136.92 429.928 136.402 433.279C135.884 436.63 153.856 441.292 159.04 442.02Z" fill="url(#paint21_linear_56_221)"/>
<path opacity="0.6" d="M131.866 402.249C131.866 402.249 141.626 401.921 144.004 401.375C146.382 400.828 147.419 402.249 145.215 403.341C143.012 404.434 137.594 404.434 134.341 403.887C131.088 403.341 129.116 402.36 131.866 402.249Z" fill="url(#paint22_linear_56_221)"/>
<path opacity="0.6" d="M101.279 401.254C101.279 401.254 106.722 401.921 109.833 401.702C112.944 401.484 114.779 401.151 113.861 402.629C112.944 404.106 110.611 404.715 107.241 404.247C103.871 403.778 97.166 400.875 101.279 401.254Z" fill="url(#paint23_linear_56_221)"/>
<path opacity="0.6" d="M75.3579 437.868C75.3579 437.868 83.2638 433.279 91.1698 430.548C99.0757 427.816 97.3938 428.362 99.9844 430.111C102.575 431.859 107.878 430.506 107.041 433.259C106.204 436.011 89.3554 440.6 82.3567 440.928C75.3579 441.255 72.4647 439.451 75.3579 437.868Z" fill="url(#paint24_linear_56_221)"/>
<path opacity="0.6" d="M67.0631 340.847C67.0631 340.847 64.2306 342.742 65.1932 345.453C66.1559 348.163 71.988 360.291 75.4875 360.291C78.987 360.291 79.8941 358.761 77.1724 355.811C74.4507 352.861 71.2105 349.239 70.0441 346.297C68.8777 343.355 67.9098 340.103 67.0631 340.847Z" fill="url(#paint25_linear_56_221)"/>
<path opacity="0.6" d="M67.3221 364.334C67.3221 364.334 69.1365 370.78 71.0807 375.807C73.0248 380.833 71.8583 382.362 69.7846 382.362C67.7109 382.362 66.2936 381.816 64.9934 378.429C63.6931 375.042 65.3745 357.985 67.3221 364.334Z" fill="url(#paint26_linear_56_221)"/>
<path opacity="0.6" d="M56.6947 363.46C56.9499 363.962 59.8128 375.393 60.4532 377.118C61.0936 378.843 58.3795 378.538 56.6947 375.807C55.0097 373.075 54.7505 359.636 56.6947 363.46Z" fill="url(#paint27_linear_56_221)"/>
<path opacity="0.6" d="M58.7686 356.467C58.7686 356.467 58.5717 360.509 60.5495 361.493C62.5272 362.476 63.4344 357.887 62.3977 355.483C61.3609 353.08 58.6747 354.739 58.7686 356.467Z" fill="url(#paint28_linear_56_221)"/>
<path opacity="0.6" d="M51.7696 356.467C51.7696 356.467 51.5727 360.509 53.5504 361.493C55.528 362.476 56.4353 357.887 55.3985 355.483C54.3618 353.08 51.6756 354.739 51.7696 356.467Z" fill="url(#paint29_linear_56_221)"/>
<path opacity="0.6" d="M46.8448 355.169C46.8448 355.169 46.6479 359.212 48.6255 360.195C50.6034 361.179 51.5105 356.59 50.4737 354.186C49.437 351.782 46.7509 353.442 46.8448 355.169Z" fill="url(#paint30_linear_56_221)"/>
<path opacity="0.6" d="M54.6211 309.593C54.6211 309.593 68.3593 310.576 71.0811 314.4C73.8028 318.225 71.5995 319.464 70.433 318.844C69.2665 318.225 69.4845 313.308 62.8305 312.543C56.1765 311.778 50.1245 309.079 54.6211 309.593Z" fill="url(#paint31_linear_56_221)"/>
<path d="M101.951 258.199C101.951 258.199 105.292 255.69 105.424 254.451C105.556 253.213 106.497 258.417 100.411 261.861L101.951 258.199Z" fill="url(#paint32_linear_56_221)"/>
<path opacity="0.4" d="M156.62 141.181C156.62 141.181 176.234 129.308 171.395 117.07C166.557 104.833 150.744 97.7669 142.104 104.76C133.464 111.753 146.457 112.481 151.695 122.096C155.695 129.438 131.584 144.969 138.918 147.882C146.252 150.796 156.62 141.181 156.62 141.181Z" fill="url(#paint33_linear_56_221)"/>
<path opacity="0.9" d="M155.584 138.559C155.584 138.559 171.309 127.456 169.063 119.968C166.816 112.481 153.683 103.157 151.091 106.508C148.499 109.859 160.077 113.381 157.485 122.182C154.893 130.983 147.462 143.512 155.584 138.559Z" fill="url(#paint34_linear_56_221)"/>
<path opacity="0.4" d="M92.1632 152.108C92.1632 152.108 101.281 148.32 96.6155 131.566C91.9497 114.812 79.0299 103.595 73.3272 103.595C67.6245 103.595 61.8013 106.654 71.366 115.832C80.9307 125.01 85.6765 132.106 82.7388 139.681C79.801 147.257 81.1036 157.207 92.1632 152.108Z" fill="url(#paint35_linear_56_221)"/>
<path opacity="0.9" d="M94.0646 131.712C94.0646 131.712 91.4384 122.293 84.5602 113.647C77.682 105 70.7878 105.488 71.3666 108.839C71.9453 112.19 82.4866 115.541 85.5971 126.613C88.7076 137.685 94.9282 140.704 94.0646 131.712Z" fill="url(#paint36_linear_56_221)"/>
<path d="M42.0346 82.3244C42.0346 82.3244 42.9386 62.4384 83.3198 46.2674C123.701 30.0964 150.99 37.5264 154.842 46.2674C158.695 55.0085 130.012 49.9824 103.742 60.2532C77.4714 70.524 86.4303 79.9207 83.3198 88.8802C80.2093 97.8398 76.7838 88.6617 65.1194 91.0655C53.4549 93.4694 38.8332 99.8338 42.0346 82.3244Z" fill="url(#paint37_linear_56_221)"/>
<path opacity="0.5" d="M54.5571 56.9297L62.8661 51.5678L57.7945 43.9873L47.894 46.9696L54.5571 56.9297Z" fill="url(#paint38_linear_56_221)"/>
<path d="M157.519 43.0405L165.967 48.1945L172.831 37.9373L162.93 34.9551L157.519 43.8634V43.0405Z" fill="url(#paint39_linear_56_221)"/>
<path d="M48.0109 138.049C48.6073 138.523 60.9554 153.564 71.3319 157.716C81.7083 161.868 80.8583 168.861 76.3583 172.358C71.8583 175.854 65.1189 174.762 58.1202 166.895C51.1215 159.028 38.9384 130.838 48.0109 138.049Z" fill="url(#paint40_linear_56_221)"/>
<path d="M145.867 160.12C145.867 160.12 159.495 151.597 163.631 147.445C167.767 143.293 170.359 150.071 164.656 159.029C158.954 167.987 154.288 178.374 148.326 176.786C142.364 175.198 140.771 163.41 145.867 160.12Z" fill="url(#paint41_linear_56_221)"/>
<path d="M34.6306 35.2312C34.6306 35.2312 48.3728 28.6157 53.9728 27.2552C59.5727 25.8947 58.4658 28.4206 50.1711 32.7912C41.8763 37.1618 26.3481 40.5848 34.6306 35.2312Z" fill="url(#paint42_linear_56_221)"/>
<path d="M178.74 27.8383C178.74 27.8383 159.022 20.8422 163.879 18.5144C168.736 16.1865 188.763 24.0504 187.035 27.8383C185.307 31.626 178.74 27.8383 178.74 27.8383Z" fill="url(#paint43_linear_56_221)"/>
<path d="M112.727 9.48183C112.727 9.48183 83.3034 10.2875 71.4382 18.0912C59.5727 25.8949 98.0289 22.8848 94.1457 30.4604C90.2625 38.036 87.2659 27.5482 42.1062 57.5586C-3.05356 87.5689 13.1903 119.62 20.4482 143.221C27.7061 166.821 49.1973 222.764 89.2571 219.268C129.317 215.772 95.7366 192.846 68.2881 156.233C40.8395 119.62 31.8535 104.177 52.936 78.8278C74.0185 53.4786 142.829 54.6461 142.812 36.7259C142.796 18.8057 109.907 20.4369 125.861 18.0912C141.815 15.7454 159.681 10.0831 150.71 9.14991C141.738 8.21676 112.727 9.48183 112.727 9.48183Z" fill="url(#paint44_linear_56_221)"/>
<path d="M127.071 215.626C127.071 215.626 161.047 202.518 172.831 176.949C184.616 151.379 197.576 115.401 201.205 129.456C204.834 143.512 201.316 176.635 177.931 198.534C154.547 220.434 108.392 227.423 127.071 215.626Z" fill="url(#paint45_linear_56_221)"/>
<path d="M215.553 242.609C215.553 242.609 228.959 250.601 238.347 251.331L245.776 229.431C245.776 229.431 251.02 230.65 256.305 225.936C261.589 221.222 232.038 199.024 232.038 199.024C232.038 199.024 228.593 211.266 227.105 209.776C225.618 208.287 211.254 192.839 206.033 195.963C200.813 199.087 200.025 205.252 205.27 207.835C209.616 209.975 224.631 218.201 224.467 223.066C224.303 227.932 212.477 240.903 215.553 242.609Z" fill="#4E5D78"/>
<path d="M236.444 213.228C235.145 213.023 228.408 209.295 229.445 203.176C230.482 197.057 236.963 188.097 240.073 188.972C243.184 189.846 248.886 194.216 247.331 199.461C245.776 204.706 240.591 213.884 236.444 213.228Z" fill="#4E5D78"/>
<path d="M244.456 218.233C243.243 217.79 237.651 212.899 240.267 207.125C242.882 201.351 251.552 193.821 254.356 195.253C257.161 196.685 261.576 202.01 258.684 206.835C255.792 211.66 248.329 219.645 244.456 218.233Z" fill="#4E5D78"/>
<path d="M251.828 227.411C250.615 226.969 245.023 222.077 247.638 216.303C250.254 210.529 258.923 202.999 261.728 204.431C264.532 205.863 268.948 211.188 266.056 216.013C263.163 220.838 255.701 228.823 251.828 227.411Z" fill="#4E5D78"/>
<path opacity="0.6" d="M261.728 204.431C261.185 204.154 260.42 204.219 259.524 204.535C260.208 200.429 256.719 196.459 254.356 195.253C253.006 194.563 250.294 195.961 247.554 198.232C247.982 193.546 242.937 189.776 240.073 188.972C236.962 188.097 230.482 197.057 229.446 203.176C229.251 204.321 229.33 205.383 229.594 206.353C228.685 208.624 227.725 210.397 227.105 209.776C225.618 208.287 211.254 192.839 206.033 195.963C200.813 199.087 200.025 205.252 205.27 207.835C209.616 209.974 224.631 218.201 224.467 223.066C224.303 227.932 212.477 240.903 215.553 242.608C215.553 242.608 228.959 250.601 238.347 251.331L245.776 229.431C245.776 229.431 250.091 230.418 254.837 227.087C258.779 225.431 263.802 219.772 266.056 216.013C268.947 211.188 264.532 205.863 261.728 204.431Z" fill="url(#paint46_linear_56_221)"/>
<path opacity="0.7" d="M243.366 192.197C243.366 192.197 239.734 188.372 236.753 191.54C233.772 194.709 231.309 204.215 235.327 205.635C239.345 207.056 248.852 197.225 243.366 192.197Z" fill="url(#paint47_linear_56_221)"/>
<path opacity="0.7" d="M255.169 199.942C255.169 199.942 251.536 196.117 248.556 199.285C245.575 202.454 243.112 211.96 247.13 213.38C251.148 214.801 260.655 204.97 255.169 199.942Z" fill="url(#paint48_linear_56_221)"/>
<path opacity="0.7" d="M262.945 208.649C262.945 208.649 259.313 204.824 256.332 207.992C253.351 211.161 250.888 220.667 254.906 222.087C258.924 223.508 268.431 213.677 262.945 208.649Z" fill="url(#paint49_linear_56_221)"/>
<path opacity="0.7" d="M221.769 206.736C221.769 206.736 212.708 197.195 208.636 197.112C204.564 197.03 202.933 200.326 205.18 201.924C207.426 203.523 214.684 205.416 218.313 209.641C221.942 213.866 224.88 210.97 221.769 206.736Z" fill="url(#paint50_linear_56_221)"/>
<defs>
<linearGradient id="paint0_linear_56_221" x1="56.0888" y1="318.097" x2="234.631" y2="318.097" gradientUnits="userSpaceOnUse">
<stop stop-color="#A32EDA"/>
<stop offset="1" stop-color="#A32EDA"/>
</linearGradient>
<linearGradient id="paint1_linear_56_221" x1="28.2225" y1="128.515" x2="192.502" y2="128.515" gradientUnits="userSpaceOnUse">
<stop stop-color="#A32EDA"/>
<stop offset="1" stop-color="#A32EDA"/>
</linearGradient>
<linearGradient id="paint2_linear_56_221" x1="174.612" y1="110.312" x2="116.154" y2="150.346" gradientUnits="userSpaceOnUse">
<stop stop-color="#855D9C"/>
<stop offset="1" stop-color="#855D9C"/>
</linearGradient>
<linearGradient id="paint3_linear_56_221" x1="76.3589" y1="184.694" x2="134.424" y2="184.694" gradientUnits="userSpaceOnUse">
<stop stop-color="#855D9C"/>
<stop offset="1" stop-color="#855D9C"/>
</linearGradient>
<linearGradient id="paint4_linear_56_221" x1="94.2326" y1="117.198" x2="54.1659" y2="144.637" gradientUnits="userSpaceOnUse">
<stop stop-color="#855D9C"/>
<stop offset="1" stop-color="#855D9C"/>
</linearGradient>
<linearGradient id="paint5_linear_56_221" x1="71.4389" y1="159.029" x2="71.4389" y2="99.8838" gradientUnits="userSpaceOnUse">
<stop stop-color="#722ABE"/>
<stop offset="1" stop-color="#722ABE"/>
</linearGradient>
<linearGradient id="paint6_linear_56_221" x1="145.939" y1="159.029" x2="145.939" y2="99.8838" gradientUnits="userSpaceOnUse">
<stop stop-color="#722ABE"/>
<stop offset="1" stop-color="#722ABE"/>
</linearGradient>
<linearGradient id="paint7_linear_56_221" x1="82.6652" y1="297.215" x2="163.631" y2="297.215" gradientUnits="userSpaceOnUse">
<stop stop-color="#4C65DB"/>
<stop offset="1" stop-color="#4C65DB"/>
</linearGradient>
<linearGradient id="paint8_linear_56_221" x1="105.424" y1="247.542" x2="133.259" y2="247.542" gradientUnits="userSpaceOnUse">
<stop stop-color="#4E53A3"/>
<stop offset="1" stop-color="#4E53A3"/>
</linearGradient>
<linearGradient id="paint9_linear_56_221" x1="102.452" y1="275.422" x2="138.096" y2="275.422" gradientUnits="userSpaceOnUse">
<stop stop-color="#4E53A3"/>
<stop offset="1" stop-color="#4E53A3"/>
</linearGradient>
<linearGradient id="paint10_linear_56_221" x1="68.2881" y1="287.067" x2="89.2572" y2="287.067" gradientUnits="userSpaceOnUse">
<stop stop-color="#4E53A3"/>
<stop offset="1" stop-color="#4E53A3"/>
</linearGradient>
<linearGradient id="paint11_linear_56_221" x1="61.2021" y1="279.094" x2="104.729" y2="279.094" gradientUnits="userSpaceOnUse">
<stop stop-color="#4C65DB"/>
<stop offset="1" stop-color="#4C65DB"/>
</linearGradient>
<linearGradient id="paint12_linear_56_221" x1="106.121" y1="261.861" x2="134.423" y2="261.861" gradientUnits="userSpaceOnUse">
<stop stop-color="#4C65DB"/>
<stop offset="1" stop-color="#4C65DB"/>
</linearGradient>
<linearGradient id="paint13_linear_56_221" x1="94.7637" y1="329.169" x2="107.064" y2="329.169" gradientUnits="userSpaceOnUse">
<stop stop-color="#4E53A3"/>
<stop offset="1" stop-color="#4E53A3"/>
</linearGradient>
<linearGradient id="paint14_linear_56_221" x1="137.229" y1="334.031" x2="149.688" y2="334.031" gradientUnits="userSpaceOnUse">
<stop stop-color="#4E53A3"/>
<stop offset="1" stop-color="#4E53A3"/>
</linearGradient>
<linearGradient id="paint15_linear_56_221" x1="134.341" y1="371.157" x2="144.004" y2="371.157" gradientUnits="userSpaceOnUse">
<stop stop-color="#4C65DB"/>
<stop offset="1" stop-color="#4C65DB"/>
</linearGradient>
<linearGradient id="paint16_linear_56_221" x1="105.497" y1="374.958" x2="111.535" y2="374.958" gradientUnits="userSpaceOnUse">
<stop stop-color="#4C65DB"/>
<stop offset="1" stop-color="#4C65DB"/>
</linearGradient>
<linearGradient id="paint17_linear_56_221" x1="102.451" y1="239.478" x2="132.472" y2="239.478" gradientUnits="userSpaceOnUse">
<stop stop-color="#323CDA"/>
<stop offset="1" stop-color="#323CDA"/>
</linearGradient>
<linearGradient id="paint18_linear_56_221" x1="121.612" y1="421.975" x2="71.6371" y2="421.975" gradientUnits="userSpaceOnUse">
<stop stop-color="#323CDA"/>
<stop offset="1" stop-color="#323CDA"/>
</linearGradient>
<linearGradient id="paint19_linear_56_221" x1="123.48" y1="421.975" x2="173.454" y2="421.975" gradientUnits="userSpaceOnUse">
<stop stop-color="#323CDA"/>
<stop offset="1" stop-color="#323CDA"/>
</linearGradient>
<linearGradient id="paint20_linear_56_221" x1="45.9901" y1="346.297" x2="80.2045" y2="346.297" gradientUnits="userSpaceOnUse">
<stop stop-color="#323CDA"/>
<stop offset="1" stop-color="#323CDA"/>
</linearGradient>
<linearGradient id="paint21_linear_56_221" x1="170.535" y1="435.487" x2="136.391" y2="435.487" gradientUnits="userSpaceOnUse">
<stop stop-color="#323CDA"/>
<stop offset="1" stop-color="#323CDA"/>
</linearGradient>
<linearGradient id="paint22_linear_56_221" x1="146.428" y1="402.75" x2="130.562" y2="402.75" gradientUnits="userSpaceOnUse">
<stop stop-color="#323CDA"/>
<stop offset="1" stop-color="#323CDA"/>
</linearGradient>
<linearGradient id="paint23_linear_56_221" x1="114.098" y1="402.81" x2="99.9844" y2="402.81" gradientUnits="userSpaceOnUse">
<stop stop-color="#323CDA"/>
<stop offset="1" stop-color="#323CDA"/>
</linearGradient>
<linearGradient id="paint24_linear_56_221" x1="107.13" y1="434.808" x2="74.2451" y2="434.808" gradientUnits="userSpaceOnUse">
<stop stop-color="#323CDA"/>
<stop offset="1" stop-color="#323CDA"/>
</linearGradient>
<linearGradient id="paint25_linear_56_221" x1="78.7629" y1="350.515" x2="64.9937" y2="350.515" gradientUnits="userSpaceOnUse">
<stop stop-color="#323CDA"/>
<stop offset="1" stop-color="#323CDA"/>
</linearGradient>
<linearGradient id="paint26_linear_56_221" x1="72.0737" y1="372.646" x2="64.5347" y2="372.646" gradientUnits="userSpaceOnUse">
<stop stop-color="#323CDA"/>
<stop offset="1" stop-color="#323CDA"/>
</linearGradient>
<linearGradient id="paint27_linear_56_221" x1="60.5492" y1="370.485" x2="55.332" y2="370.485" gradientUnits="userSpaceOnUse">
<stop stop-color="#323CDA"/>
<stop offset="1" stop-color="#323CDA"/>
</linearGradient>
<linearGradient id="paint28_linear_56_221" x1="62.8306" y1="357.955" x2="58.7632" y2="357.955" gradientUnits="userSpaceOnUse">
<stop stop-color="#323CDA"/>
<stop offset="1" stop-color="#323CDA"/>
</linearGradient>
<linearGradient id="paint29_linear_56_221" x1="55.8315" y1="357.955" x2="51.7642" y2="357.955" gradientUnits="userSpaceOnUse">
<stop stop-color="#323CDA"/>
<stop offset="1" stop-color="#323CDA"/>
</linearGradient>
<linearGradient id="paint30_linear_56_221" x1="50.9068" y1="356.657" x2="46.8394" y2="356.657" gradientUnits="userSpaceOnUse">
<stop stop-color="#323CDA"/>
<stop offset="1" stop-color="#323CDA"/>
</linearGradient>
<linearGradient id="paint31_linear_56_221" x1="72.3846" y1="314.262" x2="53.0688" y2="314.262" gradientUnits="userSpaceOnUse">
<stop stop-color="#323CDA"/>
<stop offset="1" stop-color="#323CDA"/>
</linearGradient>
<linearGradient id="paint32_linear_56_221" x1="105.554" y1="258.063" x2="100.411" y2="258.063" gradientUnits="userSpaceOnUse">
<stop stop-color="#4E53A3"/>
<stop offset="1" stop-color="#4E53A3"/>
</linearGradient>
<linearGradient id="paint33_linear_56_221" x1="154.842" y1="148.432" x2="154.842" y2="101.995" gradientUnits="userSpaceOnUse">
<stop stop-color="#722ABE"/>
<stop offset="1" stop-color="#722ABE"/>
</linearGradient>
<linearGradient id="paint34_linear_56_221" x1="159.996" y1="105.806" x2="159.996" y2="139.681" gradientUnits="userSpaceOnUse">
<stop stop-color="#722ABE"/>
<stop offset="1" stop-color="#722ABE"/>
</linearGradient>
<linearGradient id="paint35_linear_56_221" x1="82.1105" y1="103.595" x2="82.1105" y2="153.504" gradientUnits="userSpaceOnUse">
<stop stop-color="#722ABE"/>
<stop offset="1" stop-color="#722ABE"/>
</linearGradient>
<linearGradient id="paint36_linear_56_221" x1="71.3324" y1="121.792" x2="94.146" y2="121.792" gradientUnits="userSpaceOnUse">
<stop stop-color="#722ABE"/>
<stop offset="1" stop-color="#722ABE"/>
</linearGradient>
<linearGradient id="paint37_linear_56_221" x1="98.3896" y1="94.1898" x2="98.3896" y2="36.7261" gradientUnits="userSpaceOnUse">
<stop stop-color="#A32EDA"/>
<stop offset="1" stop-color="#A32EDA"/>
</linearGradient>
<linearGradient id="paint38_linear_56_221" x1="55.3801" y1="56.9297" x2="55.3801" y2="43.9873" gradientUnits="userSpaceOnUse">
<stop stop-color="#855D9C"/>
<stop offset="1" stop-color="#855D9C"/>
</linearGradient>
<linearGradient id="paint39_linear_56_221" x1="165.175" y1="48.1945" x2="165.175" y2="34.955" gradientUnits="userSpaceOnUse">
<stop stop-color="#855D9C"/>
<stop offset="1" stop-color="#855D9C"/>
</linearGradient>
<linearGradient id="paint40_linear_56_221" x1="69.888" y1="150.375" x2="54.017" y2="161.244" gradientUnits="userSpaceOnUse">
<stop stop-color="#A32EDA"/>
<stop offset="1" stop-color="#A32EDA"/>
</linearGradient>
<linearGradient id="paint41_linear_56_221" x1="155.383" y1="176.948" x2="155.383" y2="146.194" gradientUnits="userSpaceOnUse">
<stop stop-color="#A32EDA"/>
<stop offset="1" stop-color="#A32EDA"/>
</linearGradient>
<linearGradient id="paint42_linear_56_221" x1="44.8576" y1="37.9663" x2="44.8576" y2="26.8862" gradientUnits="userSpaceOnUse">
<stop stop-color="#A32EDA"/>
<stop offset="1" stop-color="#A32EDA"/>
</linearGradient>
<linearGradient id="paint43_linear_56_221" x1="175.125" y1="29.5217" x2="175.125" y2="18.0914" gradientUnits="userSpaceOnUse">
<stop stop-color="#A32EDA"/>
<stop offset="1" stop-color="#A32EDA"/>
</linearGradient>
<linearGradient id="paint44_linear_56_221" x1="191.631" y1="66.2224" x2="31.7882" y2="175.689" gradientUnits="userSpaceOnUse">
<stop stop-color="#A7EAFD"/>
<stop offset="1" stop-color="#A7EAFD"/>
</linearGradient>
<linearGradient id="paint45_linear_56_221" x1="216.294" y1="150.559" x2="120.145" y2="216.405" gradientUnits="userSpaceOnUse">
<stop stop-color="#A7EAFD"/>
<stop offset="1" stop-color="#A7EAFD"/>
</linearGradient>
<linearGradient id="paint46_linear_56_221" x1="201.705" y1="220.121" x2="267" y2="220.121" gradientUnits="userSpaceOnUse">
<stop stop-color="#323CDA"/>
<stop offset="1" stop-color="#323CDA"/>
</linearGradient>
<linearGradient id="paint47_linear_56_221" x1="233.226" y1="198.029" x2="245.029" y2="198.029" gradientUnits="userSpaceOnUse">
<stop stop-color="#323CDA"/>
<stop offset="1" stop-color="#323CDA"/>
</linearGradient>
<linearGradient id="paint48_linear_56_221" x1="245.029" y1="205.774" x2="256.832" y2="205.774" gradientUnits="userSpaceOnUse">
<stop stop-color="#323CDA"/>
<stop offset="1" stop-color="#323CDA"/>
</linearGradient>
<linearGradient id="paint49_linear_56_221" x1="252.806" y1="214.481" x2="264.608" y2="214.481" gradientUnits="userSpaceOnUse">
<stop stop-color="#323CDA"/>
<stop offset="1" stop-color="#323CDA"/>
</linearGradient>
<linearGradient id="paint50_linear_56_221" x1="204.165" y1="204.41" x2="223.081" y2="204.41" gradientUnits="userSpaceOnUse">
<stop stop-color="#323CDA"/>
<stop offset="1" stop-color="#323CDA"/>
</linearGradient>
</defs>
</svg>
