<svg width="81" height="75" viewBox="0 0 81 75" fill="none" xmlns="http://www.w3.org/2000/svg">
<path d="M60.75 68.75H20.25C17.5655 68.7475 14.9917 67.759 13.0935 66.0014C11.1953 64.2437 10.1277 61.8606 10.125 59.375V32.0312C10.1247 30.6957 10.4326 29.3756 11.0281 28.1592C11.6235 26.9428 12.4928 25.8582 13.5776 24.9781L33.831 8.57184C35.6807 7.08306 38.0491 6.26318 40.5 6.26318C42.9509 6.26318 45.3193 7.08306 47.169 8.57184L67.419 24.9781C68.5045 25.8579 69.3744 26.9423 69.9704 28.1588C70.5664 29.3752 70.8749 30.6955 70.875 32.0312V59.375C70.8723 61.8606 69.8047 64.2437 67.9065 66.0014C66.0083 67.759 63.4345 68.7475 60.75 68.75Z" fill="#B2B1FF"/>
<path d="M54 68.75H27V46.875C27 44.3886 28.0667 42.004 29.9655 40.2459C31.8643 38.4877 34.4397 37.5 37.125 37.5H43.875C46.5603 37.5 49.1357 38.4877 51.0345 40.2459C52.9333 42.004 54 44.3886 54 46.875V68.75Z" fill="#6563FF"/>
</svg>
