<svg width="232" height="447" viewBox="0 0 232 447" fill="none" xmlns="http://www.w3.org/2000/svg">
<path d="M112.639 242.342C112.639 242.342 51.4357 236.239 28.1112 193.005C4.78683 149.771 -18.4666 47.1385 22.2268 23.3478C62.92 -0.442702 146.729 -11.4879 184.515 16.7877C222.302 45.0633 205.347 177.163 175.311 212.066C145.276 246.969 112.639 242.342 112.639 242.342Z" fill="#7CA4BC"/>
<path d="M112.179 239.835C112.179 239.835 53.9376 233.943 31.7421 192.203C9.54653 150.464 -12.5812 51.3788 26.1424 28.4105C64.866 5.44222 144.618 -5.22113 180.576 22.0771C216.534 49.3752 200.399 176.909 171.817 210.605C143.236 244.302 112.179 239.835 112.179 239.835Z" fill="#9CC0D3"/>
<path d="M111.206 227.618C111.206 227.618 57.6688 222.279 37.2661 184.461C16.8634 146.643 -3.47699 56.8665 32.1187 36.056C67.7146 15.2456 141.025 5.58395 174.078 30.3177C207.131 55.0514 192.3 170.604 166.027 201.134C139.754 231.665 111.206 227.618 111.206 227.618Z" fill="#B7C3C9"/>
<path d="M161.503 38.3499C168.626 37.682 179.327 35.9441 179.867 31.5085C180.68 24.8334 154.25 11.8541 150.59 17.0459C147.987 20.7384 149.833 30.2129 152.251 35.335C150.459 38.2488 148.73 41.0455 147.194 43.5085C121.21 29.4977 84.1236 36.2818 58.7459 52.1285C57.2906 49.7912 55.6769 47.1815 54.0066 44.4656C56.4248 39.3433 58.271 29.8689 55.6682 26.1764C52.0085 20.9847 25.5779 33.964 26.3912 40.639C26.9316 45.0745 37.6322 46.8125 44.7549 47.4804C45.8846 49.3198 47.1352 51.3507 48.3921 53.3816C49.2679 54.7972 50.1393 56.1996 50.9813 57.5487C43.5205 63.383 37.5988 70.0649 34.0528 77.1796C14.6751 116.058 37.4438 154.496 66.5105 188.515C95.5772 222.534 102.359 239.322 102.359 239.322C102.359 239.322 103.168 241.462 104.487 243.974H118.888C119.364 242.629 119.831 241.086 120.284 239.322C127.55 211.047 196.826 123.569 170.182 67.9016C166.339 59.8728 161.17 53.5536 155.09 48.7183C155.987 47.2807 156.926 45.7705 157.866 44.251C159.123 42.2204 160.373 40.1894 161.503 38.3499Z" fill="#BB91C8"/>
<path opacity="0.3" d="M161.503 38.3499C168.626 37.682 179.327 35.9441 179.867 31.5085C180.68 24.8334 154.25 11.8541 150.59 17.0459C147.987 20.7384 149.833 30.2129 152.251 35.335C150.459 38.2488 148.73 41.0455 147.194 43.5085C121.21 29.4977 84.1236 36.2818 58.7459 52.1285C57.2906 49.7912 55.6769 47.1815 54.0066 44.4656C56.4248 39.3433 58.271 29.8689 55.6682 26.1764C52.0085 20.9847 25.5779 33.964 26.3912 40.639C26.9316 45.0745 37.6322 46.8125 44.7549 47.4804C45.8846 49.3198 47.1352 51.3507 48.3921 53.3816C49.2679 54.7972 50.1393 56.1996 50.9813 57.5487C43.5205 63.383 37.5988 70.0649 34.0528 77.1796C14.6751 116.058 37.4438 154.496 66.5105 188.515C95.5772 222.534 102.359 239.322 102.359 239.322C102.359 239.322 103.168 241.462 104.487 243.974H118.888C119.364 242.629 119.831 241.086 120.284 239.322C127.55 211.047 196.826 123.569 170.182 67.9016C166.339 59.8728 161.17 53.5536 155.09 48.7183C155.987 47.2807 156.926 45.7705 157.866 44.251C159.123 42.2204 160.373 40.1894 161.503 38.3499Z" fill="url(#paint0_linear_88_50)"/>
<path opacity="0.5" d="M121.887 158.414C121.887 158.414 111.744 155.886 112.46 141.659C113.176 127.431 125.045 92.7496 146.118 95.1795C167.192 97.6095 173.94 117.427 168.958 123.193C163.976 128.96 139.021 137.593 135.909 144.441C132.796 151.289 122.847 159.354 121.887 158.414Z" fill="url(#paint1_linear_88_50)"/>
<path opacity="0.5" d="M44.8085 129.603C44.8085 129.603 35.7459 125.222 36.7148 115.208C37.6836 105.194 58.3255 95.6397 67.4562 97.8305C80.5395 100.969 100.608 116.229 92.8835 152.83C92.8835 152.83 50.6414 130.449 44.8085 129.603Z" fill="url(#paint2_linear_88_50)"/>
<path d="M42.7422 112.392C42.7422 112.392 60.8662 90.6049 77.8589 107.211C88.4833 117.593 103.129 151.686 86.7707 159.599C78.3006 163.697 73.2572 145.893 57.2701 137.277C43.2039 129.697 33.9431 123.802 42.7422 112.392Z" fill="#354157"/>
<path d="M165.915 111.207C165.915 111.207 147.791 89.4199 130.799 106.026C120.174 116.408 105.528 150.501 121.887 158.414C126.529 160.66 133.708 161.042 137.21 154.802C151.605 129.158 179.808 129.847 165.915 111.207Z" fill="#354157"/>
<path d="M171.078 190.501L164.705 197.156C165.07 197.446 201.18 226.622 199.227 260.752C198.951 265.587 197.221 268.809 193.94 270.602C184.635 275.685 163.645 271.299 131.545 257.553C128.628 256.303 127.319 255.745 126.38 255.478C124.716 249.276 123.885 244.374 123.885 244.374C123.885 244.374 102.692 238.594 98.6416 245.422C98.6416 245.422 98.3692 249.031 97.2672 253.939C89.6934 258.156 57.3076 271.565 43.4965 267.161C40.7081 266.272 39.1394 264.762 38.4118 262.268C32.7943 243.017 53.7598 206.419 53.9717 206.051L45.4031 201.927C44.4635 203.552 22.4582 241.956 29.0483 264.541C30.3682 269.063 34.7878 276.675 49.5586 276.843C49.729 276.845 49.8992 276.846 50.0715 276.846C61.4237 276.846 75.2191 272.614 84.8568 269.032C88.2124 267.785 91.0228 266.673 93.3955 265.677C92.1187 268.435 90.5432 271.109 88.597 273.421C88.597 273.421 70.3375 276.391 66.5048 290.909C64.045 300.226 68.8512 313.039 81.7372 322.392C77.6276 335.588 65.955 364.707 34.713 406.206C33.1991 408.219 33.7593 410.968 35.9648 412.348C36.803 412.873 37.7578 413.125 38.702 413.125C40.2452 413.125 41.761 412.455 42.7006 411.208C72.815 371.206 85.2514 342.416 90.2374 327.429C96.0695 330.231 102.973 332.407 111.017 333.607C128.146 336.162 140.286 332.162 148.035 325.817C155.399 339.33 173.998 375.961 184.15 418.484C184.644 420.551 186.65 421.963 188.88 421.963C189.221 421.963 189.567 421.928 189.915 421.859C192.529 421.341 194.187 418.987 193.618 416.602C182.189 368.735 160.235 328.059 154.703 318.266C157.776 313.331 159.042 308.035 158.644 303.575C157.425 289.916 152.421 283.396 140.98 280.6C136.408 279.482 132.763 273.469 130.03 266.655C147.755 274.135 168.001 281.47 183.772 281.469C189.533 281.469 194.697 280.49 198.921 278.182C205.094 274.808 208.452 269.099 208.905 261.213C211.098 222.839 172.713 191.803 171.078 190.501ZM96.9035 255.322C96.9255 255.254 96.9612 255.207 96.9859 255.143C96.9705 255.206 96.9558 255.268 96.9402 255.332L96.9035 255.322ZM171.078 190.501L164.705 197.156C165.07 197.446 201.18 226.622 199.227 260.752C198.951 265.587 197.221 268.809 193.94 270.602C184.635 275.685 163.645 271.299 131.545 257.553C128.628 256.303 127.319 255.745 126.38 255.478C124.716 249.276 123.885 244.374 123.885 244.374C123.885 244.374 102.692 238.594 98.6416 245.422C98.6416 245.422 98.3692 249.031 97.2672 253.939C89.6934 258.156 57.3076 271.565 43.4965 267.161C40.7081 266.272 39.1394 264.762 38.4118 262.268C32.7943 243.017 53.7598 206.419 53.9717 206.051L45.4031 201.927C44.4635 203.552 22.4582 241.956 29.0483 264.541C30.3682 269.063 34.7878 276.675 49.5586 276.843C49.729 276.845 49.8992 276.846 50.0715 276.846C61.4237 276.846 75.2191 272.614 84.8568 269.032C88.2124 267.785 91.0228 266.673 93.3955 265.677C92.1187 268.435 90.5432 271.109 88.597 273.421C88.597 273.421 70.3375 276.391 66.5048 290.909C64.045 300.226 68.8512 313.039 81.7372 322.392C77.6276 335.588 65.955 364.707 34.713 406.206C33.1991 408.219 33.7593 410.968 35.9648 412.348C36.803 412.873 37.7578 413.125 38.702 413.125C40.2452 413.125 41.761 412.455 42.7006 411.208C72.815 371.206 85.2514 342.416 90.2374 327.429C96.0695 330.231 102.973 332.407 111.017 333.607C128.146 336.162 140.286 332.162 148.035 325.817C155.399 339.33 173.998 375.961 184.15 418.484C184.644 420.551 186.65 421.963 188.88 421.963C189.221 421.963 189.567 421.928 189.915 421.859C192.529 421.341 194.187 418.987 193.618 416.602C182.189 368.735 160.235 328.059 154.703 318.266C157.776 313.331 159.042 308.035 158.644 303.575C157.425 289.916 152.421 283.396 140.98 280.6C136.408 279.482 132.763 273.469 130.03 266.655C147.755 274.135 168.001 281.47 183.772 281.469C189.533 281.469 194.697 280.49 198.921 278.182C205.094 274.808 208.452 269.099 208.905 261.213C211.098 222.839 172.713 191.803 171.078 190.501ZM171.078 190.501L164.705 197.156C165.07 197.446 201.18 226.622 199.227 260.752C198.951 265.587 197.221 268.809 193.94 270.602C184.635 275.685 163.645 271.299 131.545 257.553C128.628 256.303 127.319 255.745 126.38 255.478C124.716 249.276 123.885 244.374 123.885 244.374C123.885 244.374 102.692 238.594 98.6416 245.422C98.6416 245.422 98.3692 249.031 97.2672 253.939C89.6934 258.156 57.3076 271.565 43.4965 267.161C40.7081 266.272 39.1394 264.762 38.4118 262.268C32.7943 243.017 53.7598 206.419 53.9717 206.051L45.4031 201.927C44.4635 203.552 22.4582 241.956 29.0483 264.541C30.3682 269.063 34.7878 276.675 49.5586 276.843C49.729 276.845 49.8992 276.846 50.0715 276.846C61.4237 276.846 75.2191 272.614 84.8568 269.032C88.2124 267.785 91.0228 266.673 93.3955 265.677C92.1187 268.435 90.5432 271.109 88.597 273.421C88.597 273.421 70.3375 276.391 66.5048 290.909C64.045 300.226 68.8512 313.039 81.7372 322.392C77.6276 335.588 65.955 364.707 34.713 406.206C33.1991 408.219 33.7593 410.968 35.9648 412.348C36.803 412.873 37.7578 413.125 38.702 413.125C40.2452 413.125 41.761 412.455 42.7006 411.208C72.815 371.206 85.2514 342.416 90.2374 327.429C96.0695 330.231 102.973 332.407 111.017 333.607C128.146 336.162 140.286 332.162 148.035 325.817C155.399 339.33 173.998 375.961 184.15 418.484C184.644 420.551 186.65 421.963 188.88 421.963C189.221 421.963 189.567 421.928 189.915 421.859C192.529 421.341 194.187 418.987 193.618 416.602C182.189 368.735 160.235 328.059 154.703 318.266C157.776 313.331 159.042 308.035 158.644 303.575C157.425 289.916 152.421 283.396 140.98 280.6C136.408 279.482 132.763 273.469 130.03 266.655C147.755 274.135 168.001 281.47 183.772 281.469C189.533 281.469 194.697 280.49 198.921 278.182C205.094 274.808 208.452 269.099 208.905 261.213C211.098 222.839 172.713 191.803 171.078 190.501ZM171.078 190.501L164.705 197.156C165.07 197.446 201.18 226.622 199.227 260.752C198.951 265.587 197.221 268.809 193.94 270.602C184.635 275.685 163.645 271.299 131.545 257.553C128.628 256.303 127.319 255.745 126.38 255.478C124.716 249.276 123.885 244.374 123.885 244.374C123.885 244.374 102.692 238.594 98.6416 245.422C98.6416 245.422 98.3692 249.031 97.2672 253.939C89.6934 258.156 57.3076 271.565 43.4965 267.161C40.7081 266.272 39.1394 264.762 38.4118 262.268C32.7943 243.017 53.7598 206.419 53.9717 206.051L45.4031 201.927C44.4635 203.552 22.4582 241.956 29.0483 264.541C30.3682 269.063 34.7878 276.675 49.5586 276.843C49.729 276.845 49.8992 276.846 50.0715 276.846C61.4237 276.846 75.2191 272.614 84.8568 269.032C88.2124 267.785 91.0228 266.673 93.3955 265.677C92.1187 268.435 90.5432 271.109 88.597 273.421C88.597 273.421 70.3375 276.391 66.5048 290.909C64.045 300.226 68.8512 313.039 81.7372 322.392C77.6276 335.588 65.955 364.707 34.713 406.206C33.1991 408.219 33.7593 410.968 35.9648 412.348C36.803 412.873 37.7578 413.125 38.702 413.125C40.2452 413.125 41.761 412.455 42.7006 411.208C72.815 371.206 85.2514 342.416 90.2374 327.429C96.0695 330.231 102.973 332.407 111.017 333.607C128.146 336.162 140.286 332.162 148.035 325.817C155.399 339.33 173.998 375.961 184.15 418.484C184.644 420.551 186.65 421.963 188.88 421.963C189.221 421.963 189.567 421.928 189.915 421.859C192.529 421.341 194.187 418.987 193.618 416.602C182.189 368.735 160.235 328.059 154.703 318.266C157.776 313.331 159.042 308.035 158.644 303.575C157.425 289.916 152.421 283.396 140.98 280.6C136.408 279.482 132.763 273.469 130.03 266.655C147.755 274.135 168.001 281.47 183.772 281.469C189.533 281.469 194.697 280.49 198.921 278.182C205.094 274.808 208.452 269.099 208.905 261.213C211.098 222.839 172.713 191.803 171.078 190.501Z" fill="#728AB5"/>
<path d="M114.559 171.738C114.559 171.738 100.238 169.087 94.0985 188.085C87.9586 207.082 98.2935 216.393 105.987 211.7C120.076 203.106 124.131 213.193 126.956 210.617C139.794 198.909 129.049 171.738 114.559 171.738Z" fill="#8B3157"/>
<path opacity="0.8" d="M114.559 171.738C114.559 171.738 100.238 169.087 94.0985 188.085C87.9586 207.082 98.2935 216.393 105.987 211.7C120.076 203.106 124.131 213.193 126.956 210.617C139.794 198.909 129.049 171.738 114.559 171.738Z" fill="url(#paint3_linear_88_50)"/>
<path d="M114.559 171.738C114.559 171.738 102.405 169.502 95.6909 184.01C97.4987 186.247 100.496 189.245 103.349 188.855C107.834 188.241 108.507 181.696 108.507 181.696C108.507 181.696 110.525 188.855 114.562 187.014C116.775 186.005 118.646 182.652 119.815 179.409C119.405 182.611 119.365 185.714 120.615 186.318C122.298 187.13 125.917 183.957 128.135 180.803C124.804 175.49 119.941 171.738 114.559 171.738Z" fill="#E5E8EB"/>
<path d="M112.46 202.223C109.51 201.633 109.92 207.671 109.92 207.671C109.92 207.671 105.56 203.99 103.129 203.99C101.472 203.99 102.074 209.391 102.625 212.832C103.763 212.716 104.901 212.363 105.987 211.7C111.375 208.413 115.293 207.863 118.238 208.287C117.756 205.105 115.066 202.743 112.46 202.223Z" fill="#E5E8EB"/>
<path opacity="0.5" d="M36.6424 147.534C35.1973 149.963 56.4964 176.693 56.4964 176.693L66.5109 188.515C68.2898 173.387 65.3226 159.686 65.6222 152.83C65.9218 145.974 62.0674 145.104 58.9185 145.104C55.7695 145.104 54.8007 155.928 54.8007 149.963C54.8007 143.999 54.8007 138.035 49.714 136.709C44.6273 135.384 41.7207 141.659 41.7207 141.659C36.8762 141.085 36.6422 146.674 36.6422 146.674L36.6424 147.534Z" fill="url(#paint4_linear_88_50)"/>
<path d="M107.766 7.99636C107.766 7.99636 68.2295 10.2353 57.0614 17.8634C45.8931 25.4915 87.3663 25.8419 92.8833 33.1186C98.4004 40.3955 59.2825 44.3717 34.7572 59.3931C10.2318 74.4145 9.4943 89.446 17.3719 126.774C25.2495 164.101 37.8878 211.615 84.836 226.075C131.784 240.535 122.652 208.55 102.049 193.836C81.4448 179.122 40.1793 117.711 45.0676 90.7613C49.956 63.8111 74.5222 49.4192 114.559 44.4655C154.596 39.5117 85.797 25.374 98.3965 20.5141C110.996 15.6542 154.94 17.8412 145.485 13.298C133.439 7.50946 125.144 7.5329 107.766 7.99636Z" fill="url(#paint5_linear_88_50)"/>
<path d="M42.7422 112.392C42.7422 112.392 60.8662 90.6049 77.8589 107.211C88.4833 117.593 103.129 151.686 86.7707 159.599C78.3006 163.697 73.2572 145.893 57.2701 137.277C43.2039 129.697 33.9431 123.802 42.7422 112.392Z" fill="url(#paint6_linear_88_50)"/>
<path d="M165.915 111.207C165.915 111.207 147.791 89.4199 130.799 106.026C120.174 116.408 105.528 150.501 121.887 158.414C126.529 160.66 133.708 161.042 137.21 154.802C151.605 129.158 179.808 129.847 165.915 111.207Z" fill="url(#paint7_linear_88_50)"/>
<path opacity="0.4" d="M120.076 129.491C120.076 129.491 131.514 103.798 143.938 103.72C156.956 103.638 169.129 116.439 165.9 121.273C162.67 126.106 155.807 110.643 143.215 118.014C132.67 124.188 119.059 138.538 120.076 129.491Z" fill="url(#paint8_linear_88_50)"/>
<path opacity="0.8" d="M137.398 109.096C137.398 109.096 140.596 105.258 147.087 105.562C153.579 105.866 165.846 112.182 164.463 117.049C163.079 121.916 151.69 108.213 147.087 109.759C140.034 112.129 132.688 113.294 137.398 109.096Z" fill="url(#paint9_linear_88_50)"/>
<path opacity="0.4" d="M47.0492 111.822C47.3096 111.539 56.3361 100.228 67.0971 103.719C77.8584 107.21 91.8603 130.351 89.9226 139.936C87.9848 149.521 75.8503 115.944 65.3253 116.607C54.8004 117.27 38.9037 120.674 47.0492 111.822Z" fill="url(#paint10_linear_88_50)"/>
<path opacity="0.8" d="M53.5894 109.759C53.5894 109.759 61.2563 103.296 67.4561 105.545C73.6558 107.794 83.1427 118.595 79.8716 119.92C76.6005 121.246 71.7326 108.654 65.3254 110.643C58.9182 112.631 51.0928 114.84 53.5894 109.759Z" fill="url(#paint11_linear_88_50)"/>
<path opacity="0.5" d="M114.754 175.172C119.132 175.873 122.795 176.927 125.53 180.349C126.042 180.99 126.495 181.657 126.943 182.325C127.366 181.827 127.773 181.318 128.136 180.803C124.804 175.49 119.941 171.738 114.559 171.738C114.559 171.738 102.405 169.502 95.6909 184.01C96.1297 184.553 96.6406 185.14 97.2002 185.713C101.403 180.098 106.317 173.821 114.754 175.172Z" fill="url(#paint12_linear_88_50)"/>
<path opacity="0.5" d="M112.584 207.751C109.346 208.749 105.608 210.51 102.221 209.826C102.331 210.874 102.479 211.922 102.625 212.832C103.763 212.716 104.901 212.363 105.987 211.7C111.375 208.413 115.293 207.863 118.238 208.287C118.072 207.194 117.633 206.207 117.039 205.349C115.913 206.399 114.397 207.192 112.584 207.751Z" fill="url(#paint13_linear_88_50)"/>
<path d="M40.9129 86.6382C40.9129 86.6382 39.6098 61.3803 76.7618 48.6429C113.914 35.9056 137.988 43.0467 143.224 52.4719C148.459 61.8972 103.568 47.9519 88.3884 64.2024C73.2091 80.4529 82.0492 86.6382 67.4558 90.1727C52.8625 93.7071 38.5301 97.4944 40.9129 86.6382Z" fill="url(#paint14_linear_88_50)"/>
<path d="M88.7117 162.113C88.7117 162.113 83.3828 166.973 79.0228 162.113C74.6628 157.253 67.7583 147.082 67.4561 152.83C67.1539 158.579 69.7027 175.367 80.5394 174.042C91.3762 172.717 93.3139 162.555 88.7117 162.113Z" fill="url(#paint15_linear_88_50)"/>
<path d="M120.023 162.617C120.023 162.617 127.493 165.772 132.688 162.617C137.883 159.462 139.479 151.952 143.647 148.196C147.814 144.441 148.541 147.975 146.361 155.044C144.181 162.113 140.116 171.833 133.791 171.612C127.467 171.391 116.424 161.573 120.023 162.617Z" fill="url(#paint16_linear_88_50)"/>
<path opacity="0.5" d="M50.9811 57.549L58.7455 52.1287L54.0063 44.4658L44.7546 47.4806L50.9811 57.549Z" fill="url(#paint17_linear_88_50)"/>
<path d="M147.194 43.5084L152.251 35.335L161.503 38.3497L155.089 48.7184L147.194 43.5084Z" fill="url(#paint18_linear_88_50)"/>
<path d="M30.3361 37.303C30.3361 37.303 46.7442 24.8071 51.7504 27.0333C56.7566 29.2594 54.0292 35.7973 51.7504 35.3351C49.4715 34.8731 46.3366 31.7804 42.4541 34.4312C38.5716 37.082 26.8888 42.4875 30.3361 37.303Z" fill="url(#paint19_linear_88_50)"/>
<path d="M154.349 17.8638C154.349 17.8638 175.337 24.5998 176.396 29.5716C177.455 34.5434 169.536 34.2106 166.426 29.5716C163.316 24.9326 148.343 18.6036 154.349 17.8638Z" fill="url(#paint20_linear_88_50)"/>
<path opacity="0.5" d="M151.717 176.806C151.717 176.806 145.368 161.451 147.56 154.382C149.752 147.313 155.327 154.208 157.745 156.591C160.163 158.974 154.112 144.178 155.807 141.659C157.503 139.139 167.195 137.974 167.131 141.659C167.131 141.659 155.863 171.837 151.717 176.806Z" fill="url(#paint21_linear_88_50)"/>
<path d="M110.23 212.901C110.23 212.901 116.497 209.165 119.318 211.595C122.138 214.025 123.3 224.629 118.238 225.954C113.176 227.279 106.439 217.398 110.23 212.901Z" fill="url(#paint22_linear_88_50)"/>
<path opacity="0.5" d="M171.078 190.501L164.705 197.156C165.07 197.446 201.18 226.622 199.227 260.752C198.951 265.587 197.221 268.809 193.94 270.602C184.635 275.685 163.645 271.299 131.545 257.553C128.628 256.303 127.319 255.745 126.38 255.478C124.716 249.276 123.885 244.374 123.885 244.374C123.885 244.374 102.692 238.594 98.6416 245.422C98.6416 245.422 98.3692 249.031 97.2672 253.939C89.6934 258.156 57.3076 271.565 43.4965 267.161C40.7081 266.272 39.1394 264.762 38.4118 262.268C32.7943 243.017 53.7598 206.419 53.9717 206.051L45.4031 201.927C44.4635 203.552 22.4582 241.956 29.0483 264.541C30.3682 269.063 34.7878 276.675 49.5586 276.843C49.729 276.845 49.8992 276.846 50.0715 276.846C61.4237 276.846 75.2191 272.614 84.8568 269.032C88.2124 267.785 91.0228 266.673 93.3955 265.677C92.1187 268.435 90.5432 271.109 88.597 273.421C88.597 273.421 70.3375 276.391 66.5048 290.909C64.045 300.226 68.8512 313.039 81.7372 322.392C77.6276 335.588 65.955 364.707 34.713 406.206C33.1991 408.219 33.7593 410.968 35.9648 412.348C36.803 412.873 37.7578 413.125 38.702 413.125C40.2452 413.125 41.761 412.455 42.7006 411.208C72.815 371.206 85.2514 342.416 90.2374 327.429C96.0695 330.231 102.973 332.407 111.017 333.607C128.146 336.162 140.286 332.162 148.035 325.817C155.399 339.33 173.998 375.961 184.15 418.484C184.644 420.551 186.65 421.963 188.88 421.963C189.221 421.963 189.567 421.928 189.915 421.859C192.529 421.341 194.187 418.987 193.618 416.602C182.189 368.735 160.235 328.059 154.703 318.266C157.776 313.331 159.042 308.035 158.644 303.575C157.425 289.916 152.421 283.396 140.98 280.6C136.408 279.482 132.763 273.469 130.03 266.655C147.755 274.135 168.001 281.47 183.772 281.469C189.533 281.469 194.697 280.49 198.921 278.182C205.094 274.808 208.452 269.099 208.905 261.213C211.098 222.839 172.713 191.803 171.078 190.501ZM96.9035 255.322C96.9255 255.254 96.9612 255.207 96.9859 255.143C96.9705 255.206 96.9558 255.268 96.9402 255.332L96.9035 255.322ZM171.078 190.501L164.705 197.156C165.07 197.446 201.18 226.622 199.227 260.752C198.951 265.587 197.221 268.809 193.94 270.602C184.635 275.685 163.645 271.299 131.545 257.553C128.628 256.303 127.319 255.745 126.38 255.478C124.716 249.276 123.885 244.374 123.885 244.374C123.885 244.374 102.692 238.594 98.6416 245.422C98.6416 245.422 98.3692 249.031 97.2672 253.939C89.6934 258.156 57.3076 271.565 43.4965 267.161C40.7081 266.272 39.1394 264.762 38.4118 262.268C32.7943 243.017 53.7598 206.419 53.9717 206.051L45.4031 201.927C44.4635 203.552 22.4582 241.956 29.0483 264.541C30.3682 269.063 34.7878 276.675 49.5586 276.843C49.729 276.845 49.8992 276.846 50.0715 276.846C61.4237 276.846 75.2191 272.614 84.8568 269.032C88.2124 267.785 91.0228 266.673 93.3955 265.677C92.1187 268.435 90.5432 271.109 88.597 273.421C88.597 273.421 70.3375 276.391 66.5048 290.909C64.045 300.226 68.8512 313.039 81.7372 322.392C77.6276 335.588 65.955 364.707 34.713 406.206C33.1991 408.219 33.7593 410.968 35.9648 412.348C36.803 412.873 37.7578 413.125 38.702 413.125C40.2452 413.125 41.761 412.455 42.7006 411.208C72.815 371.206 85.2514 342.416 90.2374 327.429C96.0695 330.231 102.973 332.407 111.017 333.607C128.146 336.162 140.286 332.162 148.035 325.817C155.399 339.33 173.998 375.961 184.15 418.484C184.644 420.551 186.65 421.963 188.88 421.963C189.221 421.963 189.567 421.928 189.915 421.859C192.529 421.341 194.187 418.987 193.618 416.602C182.189 368.735 160.235 328.059 154.703 318.266C157.776 313.331 159.042 308.035 158.644 303.575C157.425 289.916 152.421 283.396 140.98 280.6C136.408 279.482 132.763 273.469 130.03 266.655C147.755 274.135 168.001 281.47 183.772 281.469C189.533 281.469 194.697 280.49 198.921 278.182C205.094 274.808 208.452 269.099 208.905 261.213C211.098 222.839 172.713 191.803 171.078 190.501ZM171.078 190.501L164.705 197.156C165.07 197.446 201.18 226.622 199.227 260.752C198.951 265.587 197.221 268.809 193.94 270.602C184.635 275.685 163.645 271.299 131.545 257.553C128.628 256.303 127.319 255.745 126.38 255.478C124.716 249.276 123.885 244.374 123.885 244.374C123.885 244.374 102.692 238.594 98.6416 245.422C98.6416 245.422 98.3692 249.031 97.2672 253.939C89.6934 258.156 57.3076 271.565 43.4965 267.161C40.7081 266.272 39.1394 264.762 38.4118 262.268C32.7943 243.017 53.7598 206.419 53.9717 206.051L45.4031 201.927C44.4635 203.552 22.4582 241.956 29.0483 264.541C30.3682 269.063 34.7878 276.675 49.5586 276.843C49.729 276.845 49.8992 276.846 50.0715 276.846C61.4237 276.846 75.2191 272.614 84.8568 269.032C88.2124 267.785 91.0228 266.673 93.3955 265.677C92.1187 268.435 90.5432 271.109 88.597 273.421C88.597 273.421 70.3375 276.391 66.5048 290.909C64.045 300.226 68.8512 313.039 81.7372 322.392C77.6276 335.588 65.955 364.707 34.713 406.206C33.1991 408.219 33.7593 410.968 35.9648 412.348C36.803 412.873 37.7578 413.125 38.702 413.125C40.2452 413.125 41.761 412.455 42.7006 411.208C72.815 371.206 85.2514 342.416 90.2374 327.429C96.0695 330.231 102.973 332.407 111.017 333.607C128.146 336.162 140.286 332.162 148.035 325.817C155.399 339.33 173.998 375.961 184.15 418.484C184.644 420.551 186.65 421.963 188.88 421.963C189.221 421.963 189.567 421.928 189.915 421.859C192.529 421.341 194.187 418.987 193.618 416.602C182.189 368.735 160.235 328.059 154.703 318.266C157.776 313.331 159.042 308.035 158.644 303.575C157.425 289.916 152.421 283.396 140.98 280.6C136.408 279.482 132.763 273.469 130.03 266.655C147.755 274.135 168.001 281.47 183.772 281.469C189.533 281.469 194.697 280.49 198.921 278.182C205.094 274.808 208.452 269.099 208.905 261.213C211.098 222.839 172.713 191.803 171.078 190.501ZM171.078 190.501L164.705 197.156C165.07 197.446 201.18 226.622 199.227 260.752C198.951 265.587 197.221 268.809 193.94 270.602C184.635 275.685 163.645 271.299 131.545 257.553C128.628 256.303 127.319 255.745 126.38 255.478C124.716 249.276 123.885 244.374 123.885 244.374C123.885 244.374 102.692 238.594 98.6416 245.422C98.6416 245.422 98.3692 249.031 97.2672 253.939C89.6934 258.156 57.3076 271.565 43.4965 267.161C40.7081 266.272 39.1394 264.762 38.4118 262.268C32.7943 243.017 53.7598 206.419 53.9717 206.051L45.4031 201.927C44.4635 203.552 22.4582 241.956 29.0483 264.541C30.3682 269.063 34.7878 276.675 49.5586 276.843C49.729 276.845 49.8992 276.846 50.0715 276.846C61.4237 276.846 75.2191 272.614 84.8568 269.032C88.2124 267.785 91.0228 266.673 93.3955 265.677C92.1187 268.435 90.5432 271.109 88.597 273.421C88.597 273.421 70.3375 276.391 66.5048 290.909C64.045 300.226 68.8512 313.039 81.7372 322.392C77.6276 335.588 65.955 364.707 34.713 406.206C33.1991 408.219 33.7593 410.968 35.9648 412.348C36.803 412.873 37.7578 413.125 38.702 413.125C40.2452 413.125 41.761 412.455 42.7006 411.208C72.815 371.206 85.2514 342.416 90.2374 327.429C96.0695 330.231 102.973 332.407 111.017 333.607C128.146 336.162 140.286 332.162 148.035 325.817C155.399 339.33 173.998 375.961 184.15 418.484C184.644 420.551 186.65 421.963 188.88 421.963C189.221 421.963 189.567 421.928 189.915 421.859C192.529 421.341 194.187 418.987 193.618 416.602C182.189 368.735 160.235 328.059 154.703 318.266C157.776 313.331 159.042 308.035 158.644 303.575C157.425 289.916 152.421 283.396 140.98 280.6C136.408 279.482 132.763 273.469 130.03 266.655C147.755 274.135 168.001 281.47 183.772 281.469C189.533 281.469 194.697 280.49 198.921 278.182C205.094 274.808 208.452 269.099 208.905 261.213C211.098 222.839 172.713 191.803 171.078 190.501Z" fill="url(#paint23_linear_88_50)"/>
<path d="M63.8471 147.874C61.072 146.113 58.7972 145.671 57.27 151.636C55.7431 157.6 54.5319 166.436 54.5319 166.436C54.5319 166.436 52.1097 167.32 52.1097 161.355C52.1097 155.391 54.0474 140.393 50.8986 139.166C47.7497 137.94 44.3586 139.044 43.6318 141.695C43.3757 142.63 43.1808 145.443 43.0343 148.728C42.8409 145.894 42.3837 143.754 41.4519 143.683C38.5453 143.462 34.4275 145.45 34.6697 151.194C34.8531 155.541 36.5989 171.31 38.0535 180.673C36.6344 177.889 35.0794 175.272 33.7817 174.168C28.9373 170.044 22.0743 174.241 25.9498 177.997C29.1546 181.102 37.7633 194.72 40.6499 199.346C39.0128 203.849 31.3265 224.673 26.8554 231.161C21.832 238.45 30.5521 241.101 36.6077 243.2C42.6632 245.299 50.1721 243.49 50.8987 238.209C51.6253 232.928 57.8283 202.583 57.2701 202.182C56.7121 201.781 62.9253 195.902 63.7364 189.852C64.842 181.605 66.6222 149.635 63.8471 147.874Z" fill="#424C78"/>
<path d="M34.8822 401.933C34.8822 401.933 8.67112 430.208 13.5156 435.952C18.3601 441.695 36.4412 450.716 51.3022 445.368C65.1902 440.37 32.5111 429.766 34.8822 425.348C37.2533 420.93 51.7501 407.815 47.4267 406.792C38.7066 404.731 36.9303 398.987 34.8822 401.933Z" fill="#424C78"/>
<path d="M183.233 431.386C183.233 431.386 180.972 415.481 179.034 411.063C177.097 406.645 180.653 407.443 185.818 405.719C190.984 403.994 194.213 401.847 194.859 405.719C195.505 409.59 199.381 427.852 202.934 429.619C206.486 431.386 232.012 433.743 232 441.99C231.993 447.324 194.859 444.874 185.494 442.812C176.128 440.75 183.233 431.386 183.233 431.386Z" fill="#424C78"/>
<path opacity="0.7" d="M142.109 284.714C140.356 284.237 120.453 276.32 103.129 281.622C85.8049 286.924 86.3192 310.339 102.049 318.733C117.778 327.128 144.675 329.779 148.909 315.199C153.143 300.619 156.209 288.557 142.109 284.714Z" fill="url(#paint24_linear_88_50)"/>
<path d="M98.4001 246.498C98.8109 247.673 102.979 251.576 110.863 253.565C118.747 255.555 125.036 250.032 125.036 250.032L124.284 246.498C124.284 246.498 98.0291 245.436 98.4001 246.498Z" fill="url(#paint25_linear_88_50)"/>
<path d="M130.604 294.945C128.632 282.628 121.94 278.791 117.513 276.251C116.005 275.386 114.702 274.641 114.072 273.805C110.107 268.56 110.767 252.825 111.107 247.616L125.595 247.682C128.27 247.693 130.449 245.725 130.463 243.285C130.475 240.846 128.335 238.873 125.642 238.844L97.7514 238.718C95.0756 238.707 92.8967 240.675 92.8834 243.115C92.8708 245.457 94.8581 247.383 97.3848 247.544C97.4896 247.551 97.5966 247.554 97.7036 247.555L109.162 247.607C108.797 253.085 108.149 269.082 112.477 274.81C113.333 275.942 114.792 276.779 116.481 277.747C120.854 280.255 126.843 283.689 128.687 295.2C130.965 309.414 126.221 319.581 126.173 319.681C125.96 320.129 126.184 320.649 126.674 320.844C126.8 320.894 126.931 320.918 127.061 320.918C127.434 320.918 127.79 320.72 127.948 320.388C128.155 319.959 132.967 309.687 130.604 294.945Z" fill="#424C78"/>
<path d="M131.256 278.382C131.256 278.382 112.641 275.878 102.049 276.762C91.4569 277.646 109.009 269.546 118.238 271.313C127.467 273.08 134.882 277.498 131.256 278.382Z" fill="url(#paint26_linear_88_50)"/>
<path d="M93.3956 265.677L91.1606 269.854C91.1606 269.854 100.984 264.686 100.015 262.33C99.0465 259.973 96.976 264.22 93.3956 265.677Z" fill="url(#paint27_linear_88_50)"/>
<path d="M81.7375 322.392L90.2376 327.429L86.8008 336.748H76.4104L81.9295 323.004L81.7375 322.392Z" fill="url(#paint28_linear_88_50)"/>
<path d="M148.035 325.817L154.703 318.266L158.69 325.584L152.458 334.215L148.035 325.817Z" fill="url(#paint29_linear_88_50)"/>
<path opacity="0.7" d="M36.0686 259.384C36.0686 259.384 36.4653 270.015 45.0677 269.854C53.67 269.693 76.6044 267.332 92.8833 257.469C92.8833 257.469 97.8485 255.113 95.6215 259.531C93.3944 263.949 60.2031 277.687 45.0677 274.721C29.9323 271.755 34.3096 253.119 36.0686 259.384Z" fill="url(#paint30_linear_88_50)"/>
<path opacity="0.7" d="M150.72 272.049C150.72 272.049 186.085 284.567 197.065 277.498C208.046 270.429 208.83 253.052 206.258 251.284C203.686 249.517 200.457 273.375 194.966 274.7C189.476 276.025 158.149 270.282 150.72 267.337C143.292 264.391 141.516 268.073 150.72 272.049Z" fill="url(#paint31_linear_88_50)"/>
<path d="M196.893 242.546L198.411 248.723C198.411 248.723 206.111 246.384 207.483 243.974L205.301 237.736C205.301 237.736 196.549 241.148 196.893 242.546Z" fill="url(#paint32_linear_88_50)"/>
<path d="M149.208 155.963C151.407 153.622 153.487 152.673 156.611 158.095C159.735 163.517 163.345 171.79 163.345 171.79C163.345 171.79 165.933 172.09 164.287 166.317C162.642 160.545 156.628 146.474 159.337 144.564C162.046 142.654 165.633 142.945 167.067 145.344C167.573 146.19 168.538 148.867 169.586 152.013C168.991 149.226 168.843 147.05 169.726 146.768C172.478 145.887 177.012 146.866 178.362 152.48C179.384 156.73 182.046 172.392 183.221 181.787C183.827 178.767 184.61 175.878 185.561 174.511C189.111 169.408 196.912 171.895 194.197 176.419C191.952 180.16 187.378 195.316 185.861 200.455C188.688 204.438 201.873 222.827 207.991 228.08C214.864 233.983 207.156 238.549 201.874 241.97C196.593 245.391 188.826 245.364 186.666 240.419C184.505 235.475 170.129 207.531 170.558 207.014C170.988 206.498 163.352 202.234 160.898 196.565C157.552 188.837 147.008 158.304 149.208 155.963Z" fill="#424C78"/>
<path opacity="0.7" d="M49.4717 399.142C49.9546 398.6 72.9674 364.902 78.2961 351.869C83.625 338.835 77.5695 337.51 73.4518 348.113C69.334 358.717 57.7074 377.493 52.1362 385.446C46.5651 393.398 40.6642 409.034 49.4717 399.142Z" fill="url(#paint33_linear_88_50)"/>
<path opacity="0.7" d="M158.69 339.94C158.69 339.94 177.365 383.237 180.998 397.817C184.631 412.396 185.358 390.748 180.998 381.028C176.638 371.308 157.18 329.626 158.69 339.94Z" fill="url(#paint34_linear_88_50)"/>
<path opacity="0.7" d="M125.037 267.926C125.037 267.926 113.903 268.147 106.636 267.926C99.3695 267.705 99.6223 259.09 103.129 257.544C106.636 255.997 116.395 260.194 121.325 258.648C126.256 257.102 131.09 267.847 125.037 267.926Z" fill="url(#paint35_linear_88_50)"/>
<path opacity="0.6" d="M123.107 240.031C123.107 240.031 97.8674 238.987 96.1962 241.638C94.5251 244.289 99.3539 244.745 109.121 244.359C118.888 243.974 126.927 240.149 123.107 240.031Z" fill="url(#paint36_linear_88_50)"/>
<path opacity="0.6" d="M63.8471 147.874C61.072 146.113 58.7972 145.671 57.27 151.636C55.7431 157.6 54.5319 166.436 54.5319 166.436C54.5319 166.436 52.1097 167.32 52.1097 161.355C52.1097 155.391 54.0474 140.393 50.8986 139.166C47.7497 137.94 44.3586 139.044 43.6318 141.695C43.3757 142.63 43.1808 145.443 43.0343 148.728C42.8409 145.894 42.3837 143.754 41.4519 143.683C38.5453 143.462 34.4275 145.45 34.6697 151.194C34.8531 155.541 36.5989 171.31 38.0535 180.673C36.6344 177.889 35.0794 175.272 33.7817 174.168C28.9373 170.044 22.0743 174.241 25.9498 177.997C29.1546 181.102 37.7633 194.72 40.6499 199.346C39.0128 203.849 31.3265 224.673 26.8554 231.161C21.832 238.45 30.5521 241.101 36.6077 243.2C42.6632 245.299 50.1721 243.49 50.8987 238.209C51.6253 232.928 57.8283 202.583 57.2701 202.182C56.7121 201.781 62.9253 195.902 63.7364 189.852C64.842 181.605 66.6222 149.635 63.8471 147.874Z" fill="url(#paint37_linear_88_50)"/>
<path opacity="0.6" d="M149.208 155.963C151.407 153.622 153.487 152.673 156.611 158.095C159.735 163.517 163.345 171.79 163.345 171.79C163.345 171.79 165.933 172.09 164.287 166.317C162.642 160.545 156.628 146.474 159.337 144.564C162.046 142.654 165.633 142.945 167.067 145.344C167.573 146.19 168.538 148.867 169.586 152.013C168.991 149.226 168.843 147.05 169.726 146.768C172.478 145.887 177.012 146.866 178.362 152.48C179.384 156.73 182.046 172.392 183.221 181.787C183.827 178.767 184.61 175.878 185.561 174.511C189.111 169.408 196.912 171.895 194.197 176.419C191.952 180.16 187.378 195.316 185.861 200.455C188.688 204.438 201.873 222.827 207.991 228.08C214.864 233.983 207.156 238.549 201.874 241.97C196.593 245.391 188.826 245.364 186.666 240.419C184.505 235.475 170.129 207.531 170.558 207.014C170.988 206.498 163.352 202.234 160.898 196.565C157.552 188.837 147.008 158.304 149.208 155.963Z" fill="url(#paint38_linear_88_50)"/>
<path opacity="0.6" d="M160.086 181.766C160.086 181.766 150.319 159.536 152.457 158.133C154.596 156.73 166.471 175.581 164.57 179.41C162.67 183.239 161.027 183.952 160.086 181.766Z" fill="url(#paint39_linear_88_50)"/>
<path opacity="0.6" d="M175.55 168.837C175.55 168.837 171.926 151.201 172.849 149.08C176.244 141.275 186.569 176.805 175.55 168.837Z" fill="url(#paint40_linear_88_50)"/>
<path opacity="0.6" d="M177.042 204.158C177.042 204.158 181.822 200.192 184.147 199.298C186.472 198.404 182.469 176.446 179.885 174.697C177.302 172.947 162.509 182.215 162.993 186.78C163.477 191.346 173.508 206.871 177.042 204.158Z" fill="url(#paint41_linear_88_50)"/>
<path opacity="0.6" d="M168.968 169.109C168.968 169.109 165.23 156.738 162.981 151.289C160.732 145.84 162.918 144.073 164.57 144.809C166.223 145.546 168.735 149.522 169.659 154.676C170.583 159.83 175.266 171.318 168.968 169.109Z" fill="url(#paint42_linear_88_50)"/>
<path opacity="0.6" d="M184.846 202.391C184.846 202.391 181.725 205.631 178.495 206.956C175.265 208.282 180.917 207.398 183.34 206.956C185.762 206.515 181.402 208.282 182.371 211.669C183.34 215.056 198.68 230.372 198.68 234.201C198.68 238.03 195.289 240.854 198.68 240.031C202.071 239.208 212.57 233.612 207.482 229.489C202.394 225.365 189.96 210.933 188.346 208.282C186.731 205.631 187.199 205.888 184.846 205.189C182.493 204.491 186.676 201.949 184.846 202.391Z" fill="url(#paint43_linear_88_50)"/>
<path opacity="0.6" d="M40.5899 196.5C40.1457 196.27 31.3855 182.033 28.6403 178.663C25.8952 175.293 31.6616 174.488 33.4614 176.805C35.261 179.122 35.975 182.996 38.1209 185.993C40.267 188.989 43.1645 197.83 40.5899 196.5Z" fill="url(#paint44_linear_88_50)"/>
<path opacity="0.6" d="M43.4969 194.88C43.4969 194.88 41.8821 178.77 40.2673 175.486C38.6524 172.201 43.8198 168.995 48.1798 170.525C52.5398 172.054 60.1294 169.776 60.4524 176.805C60.7754 183.835 59.1606 197.531 54.8006 197.678C50.4406 197.826 51.8271 197.312 48.3414 196.636C45.7897 196.141 43.6192 196.043 43.4969 194.88Z" fill="url(#paint45_linear_88_50)"/>
<path opacity="0.6" d="M36.998 167.917C36.864 167.322 32.4765 148.183 36.3521 147.447C40.2277 146.711 40.4757 147.142 40.2709 151.786C40.0662 156.43 40.3446 164.863 41.1965 167.181C42.0485 169.499 37.3168 169.333 36.998 167.917Z" fill="url(#paint46_linear_88_50)"/>
<path opacity="0.6" d="M45.0683 166.311C44.9744 165.395 43.2481 141.896 45.0683 141.659C46.8885 141.422 50.1783 140.539 50.2288 144.073C50.2794 147.608 49.3709 158.653 50.2288 163.807C51.0869 168.961 45.3111 168.68 45.0683 166.311Z" fill="url(#paint47_linear_88_50)"/>
<path opacity="0.6" d="M55.2852 167.943C55.3991 166.905 57.3846 150.553 59.3223 149.816C61.26 149.08 63.0364 149.806 62.7134 152.83C62.3903 155.854 59.8866 165.419 60.4925 168.957C61.0985 172.496 54.9909 170.627 55.2852 167.943Z" fill="url(#paint48_linear_88_50)"/>
<path opacity="0.6" d="M52.8625 202.182C52.8625 202.182 47.8252 201.313 44.2373 200.329C40.6493 199.345 42.3663 204.597 40.5899 209.09C38.8136 213.583 27.0255 233.906 29.1247 235.968C31.2239 238.03 38.7784 241.172 41.2989 238.717C43.8195 236.263 40.838 228.015 41.6021 224.334C42.3663 220.652 45.4039 210.267 47.2761 207.507C49.1483 204.747 44.4655 202.685 46.2417 202.832C48.018 202.98 55.1233 203.593 52.8625 202.182Z" fill="url(#paint49_linear_88_50)"/>
<path opacity="0.6" d="M34.8822 401.933C34.8822 401.933 8.67112 430.208 13.5156 435.952C18.3601 441.695 36.4412 450.716 51.3022 445.368C65.1902 440.37 32.5111 429.766 34.8822 425.348C37.2533 420.93 51.7501 407.815 47.4267 406.792C38.7066 404.731 36.9303 398.987 34.8822 401.933Z" fill="url(#paint50_linear_88_50)"/>
<path opacity="0.6" d="M183.233 431.386C183.233 431.386 180.972 415.481 179.034 411.063C177.097 406.645 180.653 407.443 185.818 405.719C190.984 403.994 194.213 401.847 194.859 405.719C195.505 409.59 199.381 427.852 202.934 429.619C206.486 431.386 232.012 433.743 232 441.99C231.993 447.324 194.859 444.874 185.494 442.812C176.128 440.75 183.233 431.386 183.233 431.386Z" fill="url(#paint51_linear_88_50)"/>
<path opacity="0.7" d="M31.0629 428.301C31.0629 428.301 28.6407 430.51 25.2496 431.394C21.8585 432.277 28.883 440.23 39.2986 442.439C49.714 444.648 54.3163 441.555 49.2296 438.683C44.1429 435.812 37.1185 429.627 35.1807 428.301C33.2428 426.976 31.0629 428.301 31.0629 428.301Z" fill="url(#paint52_linear_88_50)"/>
<path opacity="0.7" d="M36.6986 403.548C37.1092 403.794 42.2502 406.971 44.9744 408.163C47.6986 409.355 43.3433 411.513 40.8364 410.187C38.3295 408.862 35.2203 402.662 36.6986 403.548Z" fill="url(#paint53_linear_88_50)"/>
<path opacity="0.7" d="M195.289 436.695C195.289 436.695 200.618 434.265 202.798 431.615C204.978 428.964 227.989 436.254 227.989 438.463C227.989 440.672 192.867 440.23 195.289 436.695Z" fill="url(#paint54_linear_88_50)"/>
<path opacity="0.7" d="M180.998 408.862C180.998 408.862 189.593 406.543 191.898 405.327C194.203 404.112 196.016 407.094 191.898 408.862C187.78 410.629 177.341 409.897 180.998 408.862Z" fill="url(#paint55_linear_88_50)"/>
<defs>
<linearGradient id="paint0_linear_88_50" x1="26.3729" y1="129.912" x2="179.885" y2="129.912" gradientUnits="userSpaceOnUse">
<stop stop-color="#A32EDA"/>
<stop offset="1" stop-color="#A32EDA"/>
</linearGradient>
<linearGradient id="paint1_linear_88_50" x1="112.424" y1="126.774" x2="170.521" y2="126.774" gradientUnits="userSpaceOnUse">
<stop stop-color="#855D9C"/>
<stop offset="1" stop-color="#855D9C"/>
</linearGradient>
<linearGradient id="paint2_linear_88_50" x1="36.6424" y1="125.172" x2="94.6019" y2="125.172" gradientUnits="userSpaceOnUse">
<stop stop-color="#855D9C"/>
<stop offset="1" stop-color="#855D9C"/>
</linearGradient>
<linearGradient id="paint3_linear_88_50" x1="92.2327" y1="192.256" x2="132.688" y2="192.256" gradientUnits="userSpaceOnUse">
<stop stop-color="#855D9C"/>
<stop offset="1" stop-color="#855D9C"/>
</linearGradient>
<linearGradient id="paint4_linear_88_50" x1="36.572" y1="162.52" x2="67.0827" y2="162.52" gradientUnits="userSpaceOnUse">
<stop stop-color="#855D9C"/>
<stop offset="1" stop-color="#855D9C"/>
</linearGradient>
<linearGradient id="paint5_linear_88_50" x1="79.862" y1="7.81155" x2="79.862" y2="229.742" gradientUnits="userSpaceOnUse">
<stop stop-color="#A7EAFD"/>
<stop offset="1" stop-color="#A7EAFD"/>
</linearGradient>
<linearGradient id="paint6_linear_88_50" x1="66.701" y1="160.202" x2="66.701" y2="100.97" gradientUnits="userSpaceOnUse">
<stop stop-color="#722ABE"/>
<stop offset="1" stop-color="#722ABE"/>
</linearGradient>
<linearGradient id="paint7_linear_88_50" x1="142.109" y1="159.91" x2="142.109" y2="99.7847" gradientUnits="userSpaceOnUse">
<stop stop-color="#722ABE"/>
<stop offset="1" stop-color="#722ABE"/>
</linearGradient>
<linearGradient id="paint8_linear_88_50" x1="143.224" y1="132.405" x2="143.224" y2="103.72" gradientUnits="userSpaceOnUse">
<stop stop-color="#722ABE"/>
<stop offset="1" stop-color="#722ABE"/>
</linearGradient>
<linearGradient id="paint9_linear_88_50" x1="150.24" y1="118.1" x2="150.24" y2="105.545" gradientUnits="userSpaceOnUse">
<stop stop-color="#722ABE"/>
<stop offset="1" stop-color="#722ABE"/>
</linearGradient>
<linearGradient id="paint10_linear_88_50" x1="67.456" y1="141.659" x2="67.456" y2="103.051" gradientUnits="userSpaceOnUse">
<stop stop-color="#722ABE"/>
<stop offset="1" stop-color="#722ABE"/>
</linearGradient>
<linearGradient id="paint11_linear_88_50" x1="66.8263" y1="120.018" x2="66.8263" y2="105.069" gradientUnits="userSpaceOnUse">
<stop stop-color="#722ABE"/>
<stop offset="1" stop-color="#722ABE"/>
</linearGradient>
<linearGradient id="paint12_linear_88_50" x1="95.6909" y1="178.663" x2="128.136" y2="178.663" gradientUnits="userSpaceOnUse">
<stop stop-color="#855D9C"/>
<stop offset="1" stop-color="#855D9C"/>
</linearGradient>
<linearGradient id="paint13_linear_88_50" x1="102.049" y1="209.091" x2="118.238" y2="209.091" gradientUnits="userSpaceOnUse">
<stop stop-color="#855D9C"/>
<stop offset="1" stop-color="#855D9C"/>
</linearGradient>
<linearGradient id="paint14_linear_88_50" x1="40.6519" y1="67.7845" x2="143.646" y2="67.7845" gradientUnits="userSpaceOnUse">
<stop stop-color="#A32EDA"/>
<stop offset="1" stop-color="#A32EDA"/>
</linearGradient>
<linearGradient id="paint15_linear_88_50" x1="67.4329" y1="162.617" x2="91.0466" y2="162.617" gradientUnits="userSpaceOnUse">
<stop stop-color="#A32EDA"/>
<stop offset="1" stop-color="#A32EDA"/>
</linearGradient>
<linearGradient id="paint16_linear_88_50" x1="119.318" y1="159.145" x2="147.56" y2="159.145" gradientUnits="userSpaceOnUse">
<stop stop-color="#A32EDA"/>
<stop offset="1" stop-color="#A32EDA"/>
</linearGradient>
<linearGradient id="paint17_linear_88_50" x1="44.7547" y1="51.0074" x2="58.7455" y2="51.0074" gradientUnits="userSpaceOnUse">
<stop stop-color="#855D9C"/>
<stop offset="1" stop-color="#855D9C"/>
</linearGradient>
<linearGradient id="paint18_linear_88_50" x1="147.194" y1="42.0267" x2="161.503" y2="42.0267" gradientUnits="userSpaceOnUse">
<stop stop-color="#855D9C"/>
<stop offset="1" stop-color="#855D9C"/>
</linearGradient>
<linearGradient id="paint19_linear_88_50" x1="29.7078" y1="33.1188" x2="54.5723" y2="33.1188" gradientUnits="userSpaceOnUse">
<stop stop-color="#A32EDA"/>
<stop offset="1" stop-color="#A32EDA"/>
</linearGradient>
<linearGradient id="paint20_linear_88_50" x1="152.942" y1="25.5202" x2="176.493" y2="25.5202" gradientUnits="userSpaceOnUse">
<stop stop-color="#A32EDA"/>
<stop offset="1" stop-color="#A32EDA"/>
</linearGradient>
<linearGradient id="paint21_linear_88_50" x1="147.1" y1="158.059" x2="167.132" y2="158.059" gradientUnits="userSpaceOnUse">
<stop stop-color="#855D9C"/>
<stop offset="1" stop-color="#855D9C"/>
</linearGradient>
<linearGradient id="paint22_linear_88_50" x1="109.121" y1="218.425" x2="121.734" y2="218.425" gradientUnits="userSpaceOnUse">
<stop stop-color="#A32EDA"/>
<stop offset="1" stop-color="#A32EDA"/>
</linearGradient>
<linearGradient id="paint23_linear_88_50" x1="27.8189" y1="306.232" x2="208.995" y2="306.232" gradientUnits="userSpaceOnUse">
<stop stop-color="#A32EDA"/>
<stop offset="1" stop-color="#A32EDA"/>
</linearGradient>
<linearGradient id="paint24_linear_88_50" x1="90.1929" y1="302.693" x2="152.458" y2="302.693" gradientUnits="userSpaceOnUse">
<stop stop-color="#4C65DB"/>
<stop offset="1" stop-color="#4C65DB"/>
</linearGradient>
<linearGradient id="paint25_linear_88_50" x1="98.3963" y1="250.012" x2="125.036" y2="250.012" gradientUnits="userSpaceOnUse">
<stop stop-color="#4E53A3"/>
<stop offset="1" stop-color="#4E53A3"/>
</linearGradient>
<linearGradient id="paint26_linear_88_50" x1="98.7563" y1="274.721" x2="132.195" y2="274.721" gradientUnits="userSpaceOnUse">
<stop stop-color="#4E53A3"/>
<stop offset="1" stop-color="#4E53A3"/>
</linearGradient>
<linearGradient id="paint27_linear_88_50" x1="91.1606" y1="265.743" x2="100.083" y2="265.743" gradientUnits="userSpaceOnUse">
<stop stop-color="#4E53A3"/>
<stop offset="1" stop-color="#4E53A3"/>
</linearGradient>
<linearGradient id="paint28_linear_88_50" x1="76.4104" y1="329.57" x2="90.2376" y2="329.57" gradientUnits="userSpaceOnUse">
<stop stop-color="#4E53A3"/>
<stop offset="1" stop-color="#4E53A3"/>
</linearGradient>
<linearGradient id="paint29_linear_88_50" x1="148.035" y1="326.241" x2="158.69" y2="326.241" gradientUnits="userSpaceOnUse">
<stop stop-color="#4E53A3"/>
<stop offset="1" stop-color="#4E53A3"/>
</linearGradient>
<linearGradient id="paint30_linear_88_50" x1="34.106" y1="265.989" x2="96.196" y2="265.989" gradientUnits="userSpaceOnUse">
<stop stop-color="#4C65DB"/>
<stop offset="1" stop-color="#4C65DB"/>
</linearGradient>
<linearGradient id="paint31_linear_88_50" x1="144.465" y1="265.426" x2="207.482" y2="265.426" gradientUnits="userSpaceOnUse">
<stop stop-color="#4C65DB"/>
<stop offset="1" stop-color="#4C65DB"/>
</linearGradient>
<linearGradient id="paint32_linear_88_50" x1="196.883" y1="243.229" x2="207.483" y2="243.229" gradientUnits="userSpaceOnUse">
<stop stop-color="#4E53A3"/>
<stop offset="1" stop-color="#4E53A3"/>
</linearGradient>
<linearGradient id="paint33_linear_88_50" x1="44.9744" y1="371.673" x2="80.3873" y2="371.673" gradientUnits="userSpaceOnUse">
<stop stop-color="#4C65DB"/>
<stop offset="1" stop-color="#4C65DB"/>
</linearGradient>
<linearGradient id="paint34_linear_88_50" x1="158.607" y1="370.516" x2="184.002" y2="370.516" gradientUnits="userSpaceOnUse">
<stop stop-color="#4C65DB"/>
<stop offset="1" stop-color="#4C65DB"/>
</linearGradient>
<linearGradient id="paint35_linear_88_50" x1="100.748" y1="262.61" x2="127.861" y2="262.61" gradientUnits="userSpaceOnUse">
<stop stop-color="#4C65DB"/>
<stop offset="1" stop-color="#4C65DB"/>
</linearGradient>
<linearGradient id="paint36_linear_88_50" x1="95.8706" y1="242.154" x2="124.077" y2="242.154" gradientUnits="userSpaceOnUse">
<stop stop-color="#323CDA"/>
<stop offset="1" stop-color="#323CDA"/>
</linearGradient>
<linearGradient id="paint37_linear_88_50" x1="24.8102" y1="191.36" x2="65.3257" y2="191.36" gradientUnits="userSpaceOnUse">
<stop stop-color="#323CDA"/>
<stop offset="1" stop-color="#323CDA"/>
</linearGradient>
<linearGradient id="paint38_linear_88_50" x1="148.908" y1="193.837" x2="210.708" y2="193.837" gradientUnits="userSpaceOnUse">
<stop stop-color="#323CDA"/>
<stop offset="1" stop-color="#323CDA"/>
</linearGradient>
<linearGradient id="paint39_linear_88_50" x1="152.151" y1="170.525" x2="164.775" y2="170.525" gradientUnits="userSpaceOnUse">
<stop stop-color="#323CDA"/>
<stop offset="1" stop-color="#323CDA"/>
</linearGradient>
<linearGradient id="paint40_linear_88_50" x1="172.698" y1="158.981" x2="180.502" y2="158.981" gradientUnits="userSpaceOnUse">
<stop stop-color="#323CDA"/>
<stop offset="1" stop-color="#323CDA"/>
</linearGradient>
<linearGradient id="paint41_linear_88_50" x1="162.981" y1="189.477" x2="184.846" y2="189.477" gradientUnits="userSpaceOnUse">
<stop stop-color="#323CDA"/>
<stop offset="1" stop-color="#323CDA"/>
</linearGradient>
<linearGradient id="paint42_linear_88_50" x1="162.02" y1="157.019" x2="172.2" y2="157.019" gradientUnits="userSpaceOnUse">
<stop stop-color="#323CDA"/>
<stop offset="1" stop-color="#323CDA"/>
</linearGradient>
<linearGradient id="paint43_linear_88_50" x1="177.523" y1="221.257" x2="208.85" y2="221.257" gradientUnits="userSpaceOnUse">
<stop stop-color="#323CDA"/>
<stop offset="1" stop-color="#323CDA"/>
</linearGradient>
<linearGradient id="paint44_linear_88_50" x1="27.9116" y1="186.06" x2="41.6022" y2="186.06" gradientUnits="userSpaceOnUse">
<stop stop-color="#323CDA"/>
<stop offset="1" stop-color="#323CDA"/>
</linearGradient>
<linearGradient id="paint45_linear_88_50" x1="39.9647" y1="183.918" x2="60.4924" y2="183.918" gradientUnits="userSpaceOnUse">
<stop stop-color="#323CDA"/>
<stop offset="1" stop-color="#323CDA"/>
</linearGradient>
<linearGradient id="paint46_linear_88_50" x1="34.7569" y1="158.059" x2="41.299" y2="158.059" gradientUnits="userSpaceOnUse">
<stop stop-color="#323CDA"/>
<stop offset="1" stop-color="#323CDA"/>
</linearGradient>
<linearGradient id="paint47_linear_88_50" x1="44.2381" y1="154.665" x2="50.3158" y2="154.665" gradientUnits="userSpaceOnUse">
<stop stop-color="#323CDA"/>
<stop offset="1" stop-color="#323CDA"/>
</linearGradient>
<linearGradient id="paint48_linear_88_50" x1="55.2748" y1="160.226" x2="62.7515" y2="160.226" gradientUnits="userSpaceOnUse">
<stop stop-color="#323CDA"/>
<stop offset="1" stop-color="#323CDA"/>
</linearGradient>
<linearGradient id="paint49_linear_88_50" x1="28.8753" y1="219.912" x2="53.3022" y2="219.912" gradientUnits="userSpaceOnUse">
<stop stop-color="#323CDA"/>
<stop offset="1" stop-color="#323CDA"/>
</linearGradient>
<linearGradient id="paint50_linear_88_50" x1="12.9181" y1="424.054" x2="54.7526" y2="424.054" gradientUnits="userSpaceOnUse">
<stop stop-color="#323CDA"/>
<stop offset="1" stop-color="#323CDA"/>
</linearGradient>
<linearGradient id="paint51_linear_88_50" x1="178.498" y1="424.377" x2="232" y2="424.377" gradientUnits="userSpaceOnUse">
<stop stop-color="#323CDA"/>
<stop offset="1" stop-color="#323CDA"/>
</linearGradient>
<linearGradient id="paint52_linear_88_50" x1="24.3884" y1="435.451" x2="51.3087" y2="435.451" gradientUnits="userSpaceOnUse">
<stop stop-color="#4C65DB"/>
<stop offset="1" stop-color="#4C65DB"/>
</linearGradient>
<linearGradient id="paint53_linear_88_50" x1="36.3159" y1="407.033" x2="45.8398" y2="407.033" gradientUnits="userSpaceOnUse">
<stop stop-color="#4C65DB"/>
<stop offset="1" stop-color="#4C65DB"/>
</linearGradient>
<linearGradient id="paint54_linear_88_50" x1="195.169" y1="435.427" x2="227.989" y2="435.427" gradientUnits="userSpaceOnUse">
<stop stop-color="#4C65DB"/>
<stop offset="1" stop-color="#4C65DB"/>
</linearGradient>
<linearGradient id="paint55_linear_88_50" x1="180.234" y1="407.487" x2="194.353" y2="407.487" gradientUnits="userSpaceOnUse">
<stop stop-color="#4C65DB"/>
<stop offset="1" stop-color="#4C65DB"/>
</linearGradient>
</defs>
</svg>
