<svg width="313" height="444" viewBox="0 0 313 444" fill="none" xmlns="http://www.w3.org/2000/svg">
<path d="M143.898 243.396C143.898 243.396 142.748 260.646 135.138 270.79C135.138 270.79 119.213 273.696 115.87 287.9C112.527 302.105 124.541 324.63 154.691 329.676C184.84 334.721 197.292 313.657 196.229 300.293C195.165 286.928 190.801 280.55 180.823 277.814C170.845 275.078 165.914 242.371 165.914 242.371C165.914 242.371 147.43 236.716 143.898 243.396Z" fill="#7289B4"/>
<path d="M145.797 410.757C143.483 410.757 141.597 408.85 141.574 406.478C141.303 378.554 134.124 325.146 134.051 324.609C133.731 322.245 135.347 320.063 137.657 319.735C139.975 319.41 142.104 321.06 142.422 323.426C142.721 325.637 149.747 377.914 150.024 406.392C150.047 408.779 148.174 410.734 145.84 410.757C145.827 410.757 145.812 410.757 145.797 410.757Z" fill="#7289B4"/>
<g opacity="0.6">
<path d="M145.797 410.757C143.483 410.757 141.597 408.85 141.574 406.478C141.303 378.554 134.124 325.146 134.051 324.609C133.731 322.245 135.347 320.063 137.657 319.735C139.975 319.41 142.104 321.06 142.422 323.426C142.721 325.637 149.747 377.914 150.024 406.392C150.047 408.779 148.174 410.734 145.84 410.757C145.827 410.757 145.812 410.757 145.797 410.757Z" fill="url(#paint0_linear_88_131)"/>
</g>
<path d="M168.406 410.757C168.391 410.757 168.376 410.757 168.363 410.757C166.029 410.734 164.156 408.779 164.179 406.392C164.457 377.914 171.483 325.637 171.781 323.425C172.101 321.06 174.229 319.402 176.546 319.735C178.856 320.063 180.472 322.244 180.152 324.609C180.079 325.146 172.9 378.554 172.63 406.478C172.606 408.85 170.718 410.757 168.406 410.757Z" fill="#7289B4"/>
<g opacity="0.6">
<path d="M168.406 410.757C168.391 410.757 168.376 410.757 168.363 410.757C166.029 410.734 164.156 408.779 164.179 406.392C164.457 377.914 171.483 325.637 171.781 323.425C172.101 321.06 174.229 319.402 176.546 319.735C178.856 320.063 180.472 322.244 180.152 324.609C180.079 325.146 172.9 378.554 172.63 406.478C172.606 408.85 170.718 410.757 168.406 410.757Z" fill="url(#paint1_linear_88_131)"/>
</g>
<path d="M155.855 237.106C155.855 237.106 102.477 231.135 82.1342 188.835C61.7919 146.535 41.5117 46.1199 77.0021 22.8434C112.493 -0.433126 185.586 -11.2396 218.541 16.425C251.496 44.0896 236.709 173.335 210.514 207.484C184.318 241.632 155.855 237.106 155.855 237.106Z" fill="#7BA3BC"/>
<path d="M155.855 237.106C155.855 237.106 105.349 223.969 86.3027 184.364C67.2564 144.759 48.2683 50.7409 81.4976 28.9472C114.727 7.15353 183.164 -2.96447 214.019 22.9376C244.875 48.8398 231.03 169.852 206.503 201.825C181.977 233.798 155.855 237.106 155.855 237.106Z" fill="#9BBFD2"/>
<path d="M154.816 222.268C154.816 222.268 108.124 217.044 90.3301 180.043C72.5361 143.042 54.7963 55.2057 85.8409 34.8448C116.885 14.4839 180.823 5.03118 209.65 29.2304C238.477 53.4295 225.542 166.485 202.628 196.356C179.714 226.227 154.816 222.268 154.816 222.268Z" fill="#B6C2C9"/>
<path d="M198.471 37.5214C204.683 36.868 214.016 35.1676 214.487 30.8279C215.196 24.297 192.145 11.5982 188.953 16.6778C186.683 20.2904 188.293 29.5602 190.402 34.5719C188.839 37.4227 187.331 40.159 185.992 42.5686C163.329 28.8606 130.985 35.4981 108.852 51.0025C107.583 48.7156 106.175 46.1623 104.719 43.5051C106.828 38.4936 108.438 29.2238 106.168 25.6111C102.976 20.5315 79.9249 33.2303 80.6342 39.7611C81.1055 44.1009 90.438 45.8013 96.6501 46.4547C97.6354 48.2545 98.7259 50.2416 99.8221 52.2284C100.586 53.6135 101.346 54.9855 102.08 56.3054C95.5734 62.0136 90.4088 68.5512 87.3162 75.5122C70.416 113.551 90.2737 151.158 115.624 184.442C140.974 217.726 146.889 234.152 146.889 234.152C146.889 234.152 147.595 236.245 148.745 238.703H161.304C161.72 237.387 162.127 235.877 162.522 234.152C168.859 206.487 229.278 120.899 206.04 66.4347C202.688 58.5794 198.181 52.3966 192.877 47.666C193.66 46.2595 194.479 44.7819 195.299 43.2952C196.395 41.3083 197.486 39.3212 198.471 37.5214Z" fill="#B790BD"/>
<path opacity="0.3" d="M198.471 37.5214C204.683 36.868 214.016 35.1676 214.487 30.8279C215.196 24.297 192.145 11.5982 188.953 16.6778C186.683 20.2904 188.293 29.5602 190.402 34.5719C188.839 37.4227 187.331 40.159 185.992 42.5686C163.329 28.8606 130.985 35.4981 108.852 51.0025C107.583 48.7156 106.175 46.1623 104.719 43.5051C106.828 38.4936 108.438 29.2238 106.168 25.6111C102.976 20.5315 79.9249 33.2303 80.6342 39.7611C81.1055 44.1009 90.438 45.8013 96.6501 46.4547C97.6354 48.2545 98.7259 50.2416 99.8221 52.2284C100.586 53.6135 101.346 54.9855 102.08 56.3054C95.5734 62.0136 90.4088 68.5512 87.3162 75.5122C70.416 113.551 90.2737 151.158 115.624 184.442C140.974 217.726 146.889 234.152 146.889 234.152C146.889 234.152 147.595 236.245 148.745 238.703H161.304C161.72 237.387 162.127 235.877 162.522 234.152C168.859 206.487 229.278 120.899 206.04 66.4347C202.688 58.5794 198.181 52.3966 192.877 47.666C193.66 46.2595 194.479 44.7819 195.299 43.2952C196.395 41.3083 197.486 39.3212 198.471 37.5214Z" fill="url(#paint2_linear_88_131)"/>
<path opacity="0.5" d="M102.081 56.3055L108.852 51.0023L104.719 43.505L96.6504 46.4547L102.081 56.3055Z" fill="url(#paint3_linear_88_131)"/>
<path d="M185.992 42.5682L192.877 47.6657L198.471 37.521L190.402 34.5715L185.992 43.3822V42.5682Z" fill="url(#paint4_linear_88_131)"/>
<path d="M85.8408 34.8449C85.8408 34.8449 97.0406 28.3019 101.604 26.9564C106.168 25.6109 105.266 28.1091 98.506 32.4317C91.7458 36.7542 79.0907 40.1397 85.8408 34.8449Z" fill="url(#paint5_linear_88_131)"/>
<path d="M203.287 27.5329C203.287 27.5329 187.217 20.6137 191.175 18.3114C195.133 16.0091 211.455 23.7867 210.047 27.5329C208.638 31.2791 203.287 27.5329 203.287 27.5329Z" fill="url(#paint6_linear_88_131)"/>
<path opacity="0.6" d="M145.018 243.101C144.981 243.911 147.939 247.342 155.651 248.855C163.362 250.368 167.081 245.411 166.691 243.101C166.301 240.791 143.056 239.346 145.017 242.371L145.018 243.101Z" fill="url(#paint7_linear_88_131)"/>
<path d="M143.189 243.891C140.986 243.734 139.252 241.85 139.263 239.558C139.275 237.171 141.175 235.245 143.509 235.256L167.834 235.38C170.182 235.407 172.049 237.339 172.038 239.724C172.026 242.112 170.126 244.038 167.792 244.026L143.467 243.903C143.374 243.901 143.281 243.898 143.189 243.891Z" fill="#424C78"/>
<path d="M153.65 424.637C153.65 424.637 151.597 409.087 152.131 404.463C152.663 399.84 149.867 401.419 145.088 400.989C140.309 400.558 137.055 399.279 137.474 403.087C137.893 406.894 139.172 425.046 136.62 427.54C134.068 430.034 114.088 433.907 116.149 441.695C117.482 446.733 146.005 442.534 153.379 438.412C160.754 434.291 153.65 424.637 153.65 424.637Z" fill="#424C78"/>
<path d="M161.329 424.637C161.329 424.637 163.381 409.087 162.848 404.463C162.315 399.84 165.112 401.419 169.891 400.989C174.67 400.558 177.923 399.279 177.504 403.087C177.085 406.894 175.807 425.046 178.359 427.54C180.911 430.034 200.891 433.907 198.83 441.695C197.497 446.733 168.974 442.534 161.6 438.412C154.225 434.291 161.329 424.637 161.329 424.637Z" fill="#424C78"/>
<path d="M114.259 157.95C114.259 157.95 129.477 174.177 128.615 178.939C127.753 183.701 122.582 187.581 131.029 191.461C139.476 195.341 171.586 186.892 177.028 163.118C182.577 138.875 180.967 137.522 180.594 137.878C180.221 138.234 167.644 151.276 148.905 157.964C148.905 157.964 134.726 164.652 114.259 157.95Z" fill="#8B3157"/>
<path opacity="0.8" d="M114.259 157.95C114.259 157.95 129.477 174.177 128.615 178.939C127.753 183.701 122.582 187.581 131.029 191.461C139.476 195.341 171.586 186.892 177.028 163.118C182.577 138.875 180.967 137.522 180.594 137.878C180.221 138.234 167.644 151.276 148.905 157.964C148.905 157.964 134.726 164.652 114.259 157.95Z" fill="url(#paint8_linear_88_131)"/>
<path d="M148.976 157.964C148.976 157.964 139.498 162.423 124.864 160.397L124.769 160.496C124.769 160.496 134.432 170.532 134.892 172.06C135.352 173.589 127.987 184.642 129.83 186.288C131.674 187.934 138.799 193.225 154.889 186.993C170.979 180.761 175.806 168.533 174.887 166.417C173.967 164.3 171.669 161.713 171.669 161.713C171.669 161.713 176.471 145.146 177.328 140.99C172.378 145.34 162.232 153.233 148.976 157.964Z" fill="#E4E8EB"/>
<path d="M170.832 161.387C170.814 161.404 170.371 161.802 167.602 161.713C165.853 161.669 163.266 163.352 160.561 165.156C158.194 166.733 155.512 168.521 154.053 168.521C152.061 168.521 149.413 169.651 146.851 170.743C145.004 171.53 143.091 172.298 142.263 172.305C140.129 172.2 135.03 171.221 134.979 171.211C134.769 171.173 134.565 171.224 134.394 171.328C134.612 171.641 134.775 171.905 134.822 172.06C134.873 172.231 134.815 172.535 134.696 172.915C135.09 172.992 139.977 173.923 142.182 174.031C142.224 174.034 142.266 174.034 142.31 174.034C143.526 174.034 145.374 173.247 147.502 172.339C149.797 171.359 152.4 170.25 154.053 170.25C156.013 170.25 158.671 168.479 161.483 166.605C163.738 165.102 166.29 163.341 167.544 163.442C170.208 163.533 171.621 163.229 172.187 162.413C171.842 161.992 171.599 161.713 171.599 161.713C171.599 161.713 171.691 161.394 171.849 160.842C171.405 160.711 170.962 160.933 170.832 161.387Z" fill="#ADAFB2"/>
<path opacity="0.5" d="M180.945 142.249C181.365 138.007 180.797 137.684 180.594 137.878C180.512 137.956 179.816 138.664 178.632 139.755L178.605 139.784C178.605 139.784 178.59 139.793 178.59 139.794C174.325 143.716 163.5 152.755 148.905 157.964C148.905 157.964 134.726 164.651 114.259 157.95C114.259 157.95 117.463 161.373 120.846 165.529L120.881 165.567L131.138 167.419C131.138 167.419 129.406 165.463 132.786 165.1C136.166 164.738 165.132 160.54 175.154 149.023L173.885 153.636C173.885 153.636 178.846 148.524 180.945 142.249Z" fill="url(#paint9_linear_88_131)"/>
<path d="M131.586 161.685C119.681 161.685 112.395 157.806 112.025 157.605C111.613 157.38 111.457 156.858 111.676 156.436C111.896 156.016 112.406 155.856 112.818 156.078C112.925 156.136 123.645 161.816 140.042 159.3C156.811 156.727 177.404 142.025 181.964 133.793C182.194 133.377 182.714 133.233 183.115 133.467C183.521 133.703 183.664 134.231 183.433 134.646C178.733 143.133 158.09 158.279 140.293 161.011C137.175 161.489 134.263 161.685 131.586 161.685Z" fill="#B790BD"/>
<path d="M152.411 309.02C151.986 309.02 151.619 308.693 151.571 308.25C149.579 289.854 152.344 279.917 153.995 273.98C154.344 272.724 154.646 271.638 154.823 270.738C155.734 266.102 154.816 244.224 154.807 244.002C154.786 243.526 155.149 243.123 155.615 243.101C156.075 243.101 156.475 243.452 156.495 243.928C156.534 244.837 157.43 266.238 156.48 271.079C156.29 272.045 155.98 273.161 155.621 274.453C154.003 280.268 151.296 290.001 153.251 308.061C153.303 308.536 152.968 308.963 152.505 309.015C152.472 309.019 152.441 309.02 152.411 309.02Z" fill="#424C78"/>
<path opacity="0.7" d="M167.792 244.026C170.126 244.037 172.026 242.112 172.038 239.724C172.049 237.338 170.182 235.407 167.834 235.38L143.509 235.256C141.175 235.245 139.275 237.171 139.263 239.558C139.252 241.849 140.986 243.734 143.189 243.891C143.281 243.898 143.374 243.901 143.467 243.903L154.813 243.96C154.813 243.975 154.806 243.987 154.806 244.002C154.816 244.223 155.733 266.101 154.822 270.738C154.645 271.638 154.344 272.724 153.994 273.98C152.343 279.917 149.579 289.854 151.571 308.25C151.619 308.693 151.985 309.02 152.41 309.02C152.441 309.02 152.472 309.018 152.504 309.015C152.968 308.963 153.302 308.536 153.251 308.061C151.295 290.001 154.003 280.268 155.62 274.453C155.979 273.161 156.289 272.045 156.479 271.079C157.421 266.281 156.55 245.226 156.497 243.969L167.792 244.026Z" fill="url(#paint10_linear_88_131)"/>
<path opacity="0.7" d="M152.13 404.463C152.663 399.839 149.867 401.419 145.088 400.988C140.309 400.558 137.055 399.279 137.474 403.087C137.893 406.894 139.172 425.045 136.619 427.539C134.067 430.034 114.087 433.907 116.148 441.695C117.482 446.733 146.004 442.533 153.379 438.412C160.753 434.291 153.649 424.637 153.649 424.637C153.649 424.637 151.597 409.087 152.13 404.463Z" fill="url(#paint11_linear_88_131)"/>
<path opacity="0.7" d="M178.359 427.539C175.807 425.046 177.085 406.894 177.504 403.087C177.924 399.279 174.67 400.558 169.89 400.988C165.112 401.419 162.315 399.839 162.848 404.463C163.381 409.086 161.329 424.637 161.329 424.637C161.329 424.637 154.225 434.291 161.6 438.412C168.974 442.533 197.497 446.733 198.83 441.695C200.891 433.907 180.911 430.034 178.359 427.539Z" fill="url(#paint12_linear_88_131)"/>
<path opacity="0.6" d="M177.327 283.868C177.327 283.868 163.301 283.73 152.347 280.629C141.392 277.528 136.364 268.017 126.464 279.257C118.348 288.47 125.095 318.533 156.728 319.025C188.361 319.516 184.008 303.802 183.544 296.285C183.079 288.767 180.851 283.991 177.327 283.868Z" fill="url(#paint13_linear_88_131)"/>
<path opacity="0.6" d="M166.18 279.545C166.18 279.545 153.613 279.354 145.899 272.138C138.186 264.923 154.913 271.36 163.644 272.138C172.376 272.917 171.958 280.232 166.18 279.545Z" fill="url(#paint14_linear_88_131)"/>
<path opacity="0.6" d="M165.335 266.866C165.335 266.866 145.336 267.154 145.054 261.679C144.773 256.203 146.104 251.679 149.945 251.492C153.786 251.304 160.828 254.762 163.926 253.898C167.024 253.033 169.263 266.935 165.335 266.866Z" fill="url(#paint15_linear_88_131)"/>
<path opacity="0.6" d="M176.601 429.395C176.601 429.395 172.094 433.43 168.151 433.43C164.208 433.43 165.616 437.752 176.601 439.769C187.586 441.787 200.248 440.346 195.459 436.6C190.671 432.853 178.545 427.905 176.601 429.395Z" fill="url(#paint16_linear_88_131)"/>
<path opacity="0.6" d="M117.169 440.683C117.169 440.122 117.451 437.529 122.802 434.903C128.154 432.277 135.138 429.716 136.364 429.123C137.59 428.531 139.984 430.548 144.068 431.701C148.153 432.854 142.321 436.888 136.364 438.473C130.407 440.058 117.169 443.181 117.169 440.683Z" fill="url(#paint17_linear_88_131)"/>
<path opacity="0.8" d="M154.11 127.894C154.11 127.894 149.085 125.728 151.048 111.43C153.011 97.1315 161.884 79.0487 179.418 75.2304C196.952 71.4121 211.958 90.9458 200.124 104.089C188.29 117.232 163.785 111.461 159.983 118.453C156.18 125.445 154.11 127.894 154.11 127.894Z" fill="url(#paint18_linear_88_131)"/>
<path opacity="0.6" d="M165.194 402.163C165.194 402.163 173.362 402.451 175.615 401.442C177.869 400.434 177.419 403.604 174.968 404.18C172.517 404.756 164.208 404.612 165.194 402.163Z" fill="url(#paint19_linear_88_131)"/>
<path opacity="0.6" d="M138.858 401.875C138.858 401.875 146.18 403.188 149.139 402.854C152.097 402.519 152.096 403.59 148.575 404.462C145.054 405.333 137.59 402.739 138.858 401.875Z" fill="url(#paint20_linear_88_131)"/>
<path opacity="0.6" d="M164.098 236.866C164.098 236.866 143.113 235.659 141.846 238.463C140.578 241.267 151.845 241.006 158.323 240.416C164.802 239.826 167.493 237.015 164.098 236.866Z" fill="url(#paint21_linear_88_131)"/>
<path d="M99.11 66.0843C99.11 66.0843 103.99 49.3087 135.792 42.9678C167.593 36.6268 185.165 47.982 186.003 56.1385C186.841 64.295 167.778 54.731 147.143 58.6438C126.507 62.5564 130.791 72.2119 126.694 79.2722C122.597 86.3327 122.152 77.8825 113.45 77.7824C104.748 77.6824 93.1243 80.4121 99.11 66.0843Z" fill="url(#paint22_linear_88_131)"/>
<path d="M89.8471 118.652C89.8471 118.652 107.592 126.4 117.732 132.514C127.872 138.628 109.282 147.674 100.832 140.99C92.3821 134.306 84.7646 116.368 89.8471 118.652Z" fill="url(#paint23_linear_88_131)"/>
<path d="M157.635 133.355C157.635 133.355 171.441 117.79 185.992 112.864C200.543 107.938 202.625 116.843 197.782 122.332C192.938 127.822 151.28 145.527 157.635 133.355Z" fill="url(#paint24_linear_88_131)"/>
<path opacity="0.8" d="M130.854 131.037C130.854 131.037 135.266 118.745 128.083 98.2122C120.901 77.6798 105.053 74.2218 94.1752 80.2734C83.2978 86.3251 79.378 104.027 89.0644 111.43C98.7508 118.833 130.457 133.388 130.854 131.037Z" fill="url(#paint25_linear_88_131)"/>
<path d="M195.735 106.906C195.735 106.906 172.186 112.868 155.554 127.636C149.468 133.04 150.863 86.4998 178.047 78.0511C198.055 71.8325 212.963 100.044 195.735 106.906Z" fill="#354157"/>
<path d="M90.8889 113.795C90.8889 113.795 127.986 138.742 130.855 131.038C133.723 123.333 127.465 83.597 108.362 81.4528C89.2577 79.3086 78.5347 99.8534 90.8889 113.795Z" fill="#354157"/>
<path opacity="0.8" d="M195.735 106.906C195.735 106.906 172.186 112.868 155.554 127.636C149.468 133.04 150.863 86.4998 178.047 78.0511C198.055 71.8325 212.963 100.044 195.735 106.906Z" fill="url(#paint26_linear_88_131)"/>
<path opacity="0.8" d="M90.8889 113.795C90.8889 113.795 127.986 138.742 130.855 131.038C133.723 123.333 127.465 83.597 108.362 81.4528C89.2577 79.3086 78.5347 99.8534 90.8889 113.795Z" fill="url(#paint27_linear_88_131)"/>
<path opacity="0.4" d="M166.461 91.5123C166.461 91.5123 172.736 81.6686 182.403 80.4176C192.071 79.1667 199.987 88.7746 200.124 95.6907C200.261 102.607 192.36 106.228 190.114 101.319C187.868 96.4112 187.502 90.0713 182.403 90.7918C177.305 91.5123 158.988 103.315 166.461 91.5123Z" fill="url(#paint28_linear_88_131)"/>
<path opacity="0.8" d="M196.177 89.6391C196.177 89.6391 192.938 81.5887 185.474 82.0838C178.009 82.5789 174.629 88.6305 179.277 88.0542C183.924 87.4778 187.431 85.4606 190.114 89.6391C192.797 93.8176 198.774 95.4026 196.177 89.6391Z" fill="url(#paint29_linear_88_131)"/>
<path opacity="0.4" d="M100.973 83.8757C100.973 83.8757 107.146 81.6367 113.061 84.7402C118.554 87.6219 127.262 95.4284 128.576 117.16C129.492 132.307 116.98 123.798 115.901 111.43C114.999 101.087 108.473 93.0977 102.751 91.9448C97.0292 90.7918 95.1984 85.6047 100.973 83.8757Z" fill="url(#paint30_linear_88_131)"/>
<path opacity="0.8" d="M107.87 86.1809C107.87 86.1809 112.661 85.9722 118.296 91.368C123.93 96.7638 126.645 108.725 124.724 111.43C122.802 114.134 120.222 98.4283 114.259 94.3938C108.296 90.3594 102.987 84.8959 107.87 86.1809Z" fill="url(#paint31_linear_88_131)"/>
<path d="M149.488 9.37816C149.488 9.37816 125.508 10.175 115.838 17.8931C106.168 25.6112 137.509 22.6342 134.344 30.1266C131.179 37.6192 128.737 27.2463 91.9329 56.9274C55.1286 86.6085 68.367 118.308 74.2821 141.65C80.1971 164.992 97.712 220.321 130.36 216.863C163.008 213.405 135.641 190.73 113.271 154.519C90.9005 118.308 83.5772 103.034 100.759 77.9634C117.941 52.8923 174.02 54.0469 174.006 36.3233C173.993 18.5997 147.189 20.2131 160.191 17.8931C173.193 15.5732 187.754 9.97291 180.443 9.04993C173.131 8.12695 149.488 9.37816 149.488 9.37816Z" fill="url(#paint32_linear_88_131)"/>
<path d="M161.177 213.26C161.177 213.26 188.867 200.296 198.471 175.007C208.075 149.718 218.638 114.135 221.596 128.036C224.553 141.938 221.686 174.697 202.628 196.356C183.57 218.015 145.955 224.928 161.177 213.26Z" fill="url(#paint33_linear_88_131)"/>
<path d="M307.334 341.18C307.334 341.18 301.45 327.43 296.098 326.559C290.746 325.687 288.955 337.174 288.955 337.174L290.222 344.13L307.334 341.18Z" fill="#4E5D78"/>
<path d="M5.66602 347.973C5.66602 347.973 11.5504 334.223 16.9021 333.352C22.2538 332.48 24.045 343.968 24.045 343.968L22.7781 350.923L5.66602 347.973Z" fill="#4E5D78"/>
<path d="M293.787 257.449H19.4331V395.574H293.787V257.449Z" fill="#83A2B5"/>
<path opacity="0.7" d="M293.61 294.527C289.162 291.897 285.294 290.243 280.097 290.101C271.056 289.852 259.924 291.843 256.048 301.422C253.537 307.629 253.734 314.634 254.49 321.192C256.162 335.711 261.365 350.074 261.448 364.759C261.476 369.6 260.878 374.739 257.561 378.459C253.231 383.316 246.214 382.543 240.72 380.49C235.917 378.695 231.527 376.011 226.785 374.095C220.718 371.644 214.33 369.991 208.059 368.187C195.945 364.7 184.643 360.125 173.296 354.553C129.368 332.981 88.4153 305.466 46.1826 280.725C36.9293 275.305 26.7082 269.06 19.4331 260.661V395.574H293.787V294.63C293.729 294.596 293.668 294.561 293.61 294.527Z" fill="url(#paint34_linear_88_131)"/>
<path d="M288.955 260.897H24.0449V392.881H288.955V260.897Z" fill="#BFDDED"/>
<path opacity="0.6" d="M288.955 260.897H24.0449V392.881H288.955V260.897Z" fill="url(#paint35_linear_88_131)"/>
<path opacity="0.6" d="M19.433 360.637V365.226C19.433 365.226 33.2462 368.318 38.5979 362.932C43.9496 357.546 41.9786 351.618 36.3525 350.924C30.7265 350.229 24.045 348.417 24.045 348.417V340.073C24.045 340.073 45.7517 334.248 48.0899 329.471C50.4281 324.694 42.8841 315.818 42.8841 315.818C42.8841 315.818 48.6922 301.352 39.9833 300.199C31.2744 299.047 19.1626 305.963 19.1626 305.963L19.433 360.637Z" fill="url(#paint36_linear_88_131)"/>
<path opacity="0.6" d="M276.824 296.476C276.824 296.476 269.39 295.3 268.915 299.047C268.44 302.793 265.887 303.369 264.91 305.963C263.933 308.556 258.845 322.453 264.91 325.446C270.975 328.44 288.345 332.068 288.955 333.28C289.565 334.492 289.385 339.535 289.385 339.535C289.385 339.535 272.523 339.679 273.016 347.172C273.51 354.664 282.711 357.834 288.955 357.258C295.198 356.681 293.783 355.283 293.786 350.074C293.79 344.866 297.6 328.931 296.962 326.813C296.325 324.694 291.818 308.348 291.818 308.348C291.818 308.348 277.039 295.059 276.824 296.476Z" fill="url(#paint37_linear_88_131)"/>
<path d="M3.10015 322.604C3.10015 322.604 0.98763 309.283 6.90266 304.096C12.8177 298.909 40.2804 294.154 41.548 301.07C42.8155 307.986 41.548 312.741 41.548 312.741C41.548 312.741 45.773 312.309 47.0406 317.063C48.3081 321.818 49.9981 326.141 41.548 330.463C33.0979 334.786 14.5078 340.171 8.1702 340.072C1.83262 339.973 -3.65998 325.984 3.10015 322.604Z" fill="#4E5D78"/>
<path d="M8.17021 352.941C8.17021 352.941 13.1885 360.924 24.045 361.298C37.6646 361.767 41.0024 356.741 39.7349 350.69C38.4674 344.638 29.1153 347.1 22.7119 346.236C16.3084 345.371 9.04917 341.239 6.05768 346.889C4.22681 350.347 8.17021 352.941 8.17021 352.941Z" fill="#4E5D78"/>
<path d="M309.9 315.811C309.9 315.811 312.012 302.489 306.097 297.302C300.182 292.115 272.72 287.36 271.452 294.277C270.184 301.193 271.452 305.947 271.452 305.947C271.452 305.947 267.227 305.515 265.959 310.27C264.692 315.025 263.002 319.347 271.452 323.67C279.902 327.993 298.492 333.378 304.83 333.279C311.167 333.18 316.66 319.191 309.9 315.811Z" fill="#4E5D78"/>
<path d="M304.83 346.147C304.83 346.147 299.811 354.13 288.955 354.504C275.335 354.973 271.998 349.948 273.265 343.896C274.533 337.844 283.885 340.307 290.288 339.442C296.692 338.578 303.951 334.445 306.942 340.096C308.773 343.554 304.83 346.147 304.83 346.147Z" fill="#4E5D78"/>
<g opacity="0.7">
<path d="M41.548 312.741C41.548 312.741 42.8156 307.986 41.548 301.07C40.2805 294.154 12.8178 298.908 6.90262 304.095C0.987478 309.283 3.1001 322.604 3.1001 322.604C-3.65992 325.984 1.83257 339.973 8.17015 340.072C8.6688 340.08 9.26632 340.043 9.90575 339.986C8.40386 342.337 7.17189 344.755 6.42999 346.31C6.30371 346.498 6.17183 346.673 6.05762 346.889C5.86022 347.262 5.74113 347.622 5.66587 347.973C5.04253 350.874 8.17015 352.941 8.17015 352.941C8.17015 352.941 13.1884 360.924 24.0448 361.298C37.6644 361.767 41.0116 356.739 39.7348 350.69C38.3161 343.968 25.641 347.748 19.3034 345.587L19.1625 338.238C19.1625 338.238 21.4159 338.238 22.1026 337.474C29.1672 335.543 36.8939 332.844 41.5479 330.463C49.998 326.141 48.3079 321.818 47.0405 317.063C45.7731 312.308 41.548 312.741 41.548 312.741Z" fill="url(#paint38_linear_88_131)"/>
<path d="M309.9 315.811C309.9 315.811 312.012 302.489 306.097 297.302C300.182 292.115 272.72 287.36 271.452 294.276C270.184 301.193 271.452 305.947 271.452 305.947C271.452 305.947 267.227 305.515 265.959 310.27C264.692 315.025 263.002 319.347 271.452 323.67C276.106 326.051 283.833 328.749 290.897 330.681C294.776 331.034 293.787 338.735 293.787 338.735L289.385 339.535C283.039 340.093 274.475 338.122 273.265 343.896C271.998 349.948 275.336 354.973 288.955 354.504C299.811 354.131 304.83 346.147 304.83 346.147C304.83 346.147 307.958 344.08 307.334 341.18L307.334 341.179C307.259 340.829 307.14 340.469 306.942 340.096C306.828 339.88 306.696 339.705 306.57 339.517C305.828 337.962 304.596 335.544 303.094 333.192C303.734 333.249 304.331 333.286 304.83 333.279C311.168 333.18 316.66 319.191 309.9 315.811Z" fill="url(#paint39_linear_88_131)"/>
</g>
<path opacity="0.7" d="M309 318.066C309 318.066 274.637 306.683 271.679 308.556C268.722 310.43 266.468 314.896 274.073 319.507C281.678 324.118 305.386 330.778 307.334 326.512C309.282 322.245 312.011 319.046 309 318.066Z" fill="url(#paint40_linear_88_131)"/>
<path opacity="0.7" d="M298.72 295.3C298.303 295.139 280.129 289.681 276.609 293.139C273.088 296.597 274.496 303.801 279.003 304.234C283.509 304.666 302.522 312.158 304.212 310.429C305.902 308.7 305.761 298.038 298.72 295.3Z" fill="url(#paint41_linear_88_131)"/>
<path opacity="0.7" d="M300.973 339.247C300.973 339.247 292.382 341.84 287.594 341.84C282.805 341.84 273.529 345.867 278.017 350.053C282.505 354.239 291.114 351.638 296.607 348.757C302.1 345.875 306.466 340.399 300.973 339.247Z" fill="url(#paint42_linear_88_131)"/>
<path opacity="0.7" d="M8.17743 314.896C8.17743 314.896 6.60473 307.404 14.8553 304.522C23.1059 301.64 35.7811 300.487 36.3444 304.522C36.9078 308.556 7.49788 320.164 8.17743 314.896Z" fill="url(#paint43_linear_88_131)"/>
<path opacity="0.7" d="M3.67053 326.889C3.67053 326.889 39.7243 313.267 41.6959 316.243C43.6676 319.219 43.9652 326.755 36.3522 329.471C28.7392 332.186 7.75607 334.423 5.57252 333.305C3.38897 332.186 3.67053 326.889 3.67053 326.889Z" fill="url(#paint44_linear_88_131)"/>
<path opacity="0.7" d="M10.7124 350.924C10.7124 350.924 15.1226 356.844 24.0447 358.698C32.9669 360.553 39.7403 352.082 36.3523 350.924C32.9643 349.765 25.6184 350.63 19.4328 349.189C13.2475 347.748 8.12671 348.324 10.7124 350.924Z" fill="url(#paint45_linear_88_131)"/>
<defs>
<linearGradient id="paint0_linear_88_131" x1="134.011" y1="365.226" x2="150.024" y2="365.226" gradientUnits="userSpaceOnUse">
<stop stop-color="#4E549A"/>
<stop offset="1" stop-color="#4E549A"/>
</linearGradient>
<linearGradient id="paint1_linear_88_131" x1="164.179" y1="365.225" x2="180.192" y2="365.225" gradientUnits="userSpaceOnUse">
<stop stop-color="#4E549A"/>
<stop offset="1" stop-color="#4E549A"/>
</linearGradient>
<linearGradient id="paint2_linear_88_131" x1="80.6181" y1="127.105" x2="214.503" y2="127.105" gradientUnits="userSpaceOnUse">
<stop stop-color="#784A90"/>
<stop offset="1" stop-color="#784A90"/>
</linearGradient>
<linearGradient id="paint3_linear_88_131" x1="102.751" y1="56.3055" x2="102.751" y2="43.505" gradientUnits="userSpaceOnUse">
<stop stop-color="#845E9C"/>
<stop offset="1" stop-color="#845E9C"/>
</linearGradient>
<linearGradient id="paint4_linear_88_131" x1="192.231" y1="47.6657" x2="192.231" y2="34.5715" gradientUnits="userSpaceOnUse">
<stop stop-color="#845E9C"/>
<stop offset="1" stop-color="#845E9C"/>
</linearGradient>
<linearGradient id="paint5_linear_88_131" x1="94.1757" y1="37.55" x2="94.1757" y2="26.5915" gradientUnits="userSpaceOnUse">
<stop stop-color="#784A90"/>
<stop offset="1" stop-color="#784A90"/>
</linearGradient>
<linearGradient id="paint6_linear_88_131" x1="200.34" y1="29.1979" x2="200.34" y2="17.8929" gradientUnits="userSpaceOnUse">
<stop stop-color="#784A90"/>
<stop offset="1" stop-color="#784A90"/>
</linearGradient>
<linearGradient id="paint7_linear_88_131" x1="152.5" y1="237.227" x2="160.007" y2="249.935" gradientUnits="userSpaceOnUse">
<stop stop-color="#4E549A"/>
<stop offset="1" stop-color="#4E549A"/>
</linearGradient>
<linearGradient id="paint8_linear_88_131" x1="147.679" y1="137.836" x2="147.679" y2="192.366" gradientUnits="userSpaceOnUse">
<stop stop-color="#845E9C"/>
<stop offset="1" stop-color="#845E9C"/>
</linearGradient>
<linearGradient id="paint9_linear_88_131" x1="147.678" y1="167.419" x2="147.678" y2="137.836" gradientUnits="userSpaceOnUse">
<stop stop-color="#845E9C"/>
<stop offset="1" stop-color="#845E9C"/>
</linearGradient>
<linearGradient id="paint10_linear_88_131" x1="139.263" y1="272.138" x2="172.038" y2="272.138" gradientUnits="userSpaceOnUse">
<stop stop-color="#3F4D96"/>
<stop offset="1" stop-color="#3F4D96"/>
</linearGradient>
<linearGradient id="paint11_linear_88_131" x1="156.385" y1="435.207" x2="127.577" y2="418.95" gradientUnits="userSpaceOnUse">
<stop stop-color="#3F4D96"/>
<stop offset="1" stop-color="#3F4D96"/>
</linearGradient>
<linearGradient id="paint12_linear_88_131" x1="187.08" y1="418.38" x2="158.272" y2="434.637" gradientUnits="userSpaceOnUse">
<stop stop-color="#3F4D96"/>
<stop offset="1" stop-color="#3F4D96"/>
</linearGradient>
<linearGradient id="paint13_linear_88_131" x1="140.067" y1="269.919" x2="169.591" y2="319.9" gradientUnits="userSpaceOnUse">
<stop stop-color="#4D60A4"/>
<stop offset="1" stop-color="#4D60A4"/>
</linearGradient>
<linearGradient id="paint14_linear_88_131" x1="152.265" y1="264.214" x2="163.112" y2="282.577" gradientUnits="userSpaceOnUse">
<stop stop-color="#4E549A"/>
<stop offset="1" stop-color="#4E549A"/>
</linearGradient>
<linearGradient id="paint15_linear_88_131" x1="150.772" y1="250.42" x2="161.852" y2="269.177" gradientUnits="userSpaceOnUse">
<stop stop-color="#4D60A4"/>
<stop offset="1" stop-color="#4D60A4"/>
</linearGradient>
<linearGradient id="paint16_linear_88_131" x1="176.548" y1="427.909" x2="186.465" y2="444.698" gradientUnits="userSpaceOnUse">
<stop stop-color="#4D60A4"/>
<stop offset="1" stop-color="#4D60A4"/>
</linearGradient>
<linearGradient id="paint17_linear_88_131" x1="128.357" y1="431.546" x2="133.938" y2="440.993" gradientUnits="userSpaceOnUse">
<stop stop-color="#4D60A4"/>
<stop offset="1" stop-color="#4D60A4"/>
</linearGradient>
<linearGradient id="paint18_linear_88_131" x1="177.47" y1="74.7445" x2="177.47" y2="127.894" gradientUnits="userSpaceOnUse">
<stop stop-color="#845E9C"/>
<stop offset="1" stop-color="#845E9C"/>
</linearGradient>
<linearGradient id="paint19_linear_88_131" x1="169.585" y1="399.569" x2="173.067" y2="405.465" gradientUnits="userSpaceOnUse">
<stop stop-color="#4D60A4"/>
<stop offset="1" stop-color="#4D60A4"/>
</linearGradient>
<linearGradient id="paint20_linear_88_131" x1="143.14" y1="399.345" x2="147.017" y2="405.907" gradientUnits="userSpaceOnUse">
<stop stop-color="#4D60A4"/>
<stop offset="1" stop-color="#4D60A4"/>
</linearGradient>
<linearGradient id="paint21_linear_88_131" x1="150.699" y1="233.022" x2="156.778" y2="243.312" gradientUnits="userSpaceOnUse">
<stop stop-color="#4D60A4"/>
<stop offset="1" stop-color="#4D60A4"/>
</linearGradient>
<linearGradient id="paint22_linear_88_131" x1="136.139" y1="86.5719" x2="148.946" y2="37.7541" gradientUnits="userSpaceOnUse">
<stop stop-color="#784A90"/>
<stop offset="1" stop-color="#784A90"/>
</linearGradient>
<linearGradient id="paint23_linear_88_131" x1="104.446" y1="143.346" x2="104.446" y2="118.453" gradientUnits="userSpaceOnUse">
<stop stop-color="#784A90"/>
<stop offset="1" stop-color="#784A90"/>
</linearGradient>
<linearGradient id="paint24_linear_88_131" x1="178.551" y1="137.54" x2="178.551" y2="111.429" gradientUnits="userSpaceOnUse">
<stop stop-color="#784A90"/>
<stop offset="1" stop-color="#784A90"/>
</linearGradient>
<linearGradient id="paint25_linear_88_131" x1="83.5449" y1="104.441" x2="132.195" y2="104.441" gradientUnits="userSpaceOnUse">
<stop stop-color="#845E9C"/>
<stop offset="1" stop-color="#845E9C"/>
</linearGradient>
<linearGradient id="paint26_linear_88_131" x1="177.944" y1="77.1623" x2="177.944" y2="128.071" gradientUnits="userSpaceOnUse">
<stop stop-color="#5F418B"/>
<stop offset="1" stop-color="#5F418B"/>
</linearGradient>
<linearGradient id="paint27_linear_88_131" x1="108.56" y1="81.2976" x2="108.56" y2="132.515" gradientUnits="userSpaceOnUse">
<stop stop-color="#5F418B"/>
<stop offset="1" stop-color="#5F418B"/>
</linearGradient>
<linearGradient id="paint28_linear_88_131" x1="182.41" y1="80.3067" x2="182.41" y2="103.583" gradientUnits="userSpaceOnUse">
<stop stop-color="#5F418B"/>
<stop offset="1" stop-color="#5F418B"/>
</linearGradient>
<linearGradient id="paint29_linear_88_131" x1="186.984" y1="82.0618" x2="186.984" y2="93.3908" gradientUnits="userSpaceOnUse">
<stop stop-color="#5F418B"/>
<stop offset="1" stop-color="#5F418B"/>
</linearGradient>
<linearGradient id="paint30_linear_88_131" x1="113.035" y1="83.0946" x2="113.035" y2="125.266" gradientUnits="userSpaceOnUse">
<stop stop-color="#5F418B"/>
<stop offset="1" stop-color="#5F418B"/>
</linearGradient>
<linearGradient id="paint31_linear_88_131" x1="121.352" y1="95.3239" x2="113.337" y2="99.8469" gradientUnits="userSpaceOnUse">
<stop stop-color="#5F418B"/>
<stop offset="1" stop-color="#5F418B"/>
</linearGradient>
<linearGradient id="paint32_linear_88_131" x1="213.792" y1="65.4963" x2="68.6495" y2="147.403" gradientUnits="userSpaceOnUse">
<stop stop-color="#A7D1E7"/>
<stop offset="1" stop-color="#A7D1E7"/>
</linearGradient>
<linearGradient id="paint33_linear_88_131" x1="233.892" y1="148.907" x2="146.586" y2="198.176" gradientUnits="userSpaceOnUse">
<stop stop-color="#A7D1E7"/>
<stop offset="1" stop-color="#A7D1E7"/>
</linearGradient>
<linearGradient id="paint34_linear_88_131" x1="55.0545" y1="432.018" x2="264.407" y2="227.39" gradientUnits="userSpaceOnUse">
<stop stop-color="#7B95A1"/>
<stop offset="1" stop-color="#7B95A1"/>
</linearGradient>
<linearGradient id="paint35_linear_88_131" x1="156.5" y1="392.881" x2="156.5" y2="260.897" gradientUnits="userSpaceOnUse">
<stop stop-color="#7B95A1"/>
<stop offset="1" stop-color="#7B95A1"/>
</linearGradient>
<linearGradient id="paint36_linear_88_131" x1="19.1627" y1="333.089" x2="48.5394" y2="333.089" gradientUnits="userSpaceOnUse">
<stop stop-color="#4E549A"/>
<stop offset="1" stop-color="#4E549A"/>
</linearGradient>
<linearGradient id="paint37_linear_88_131" x1="261.984" y1="326.813" x2="297.034" y2="326.813" gradientUnits="userSpaceOnUse">
<stop stop-color="#4E549A"/>
<stop offset="1" stop-color="#4E549A"/>
</linearGradient>
<linearGradient id="paint38_linear_88_131" x1="1.9716e-05" y1="329.471" x2="48.0898" y2="329.471" gradientUnits="userSpaceOnUse">
<stop stop-color="#3F4D96"/>
<stop offset="1" stop-color="#3F4D96"/>
</linearGradient>
<linearGradient id="paint39_linear_88_131" x1="264.91" y1="322.677" x2="313" y2="322.677" gradientUnits="userSpaceOnUse">
<stop stop-color="#3F4D96"/>
<stop offset="1" stop-color="#3F4D96"/>
</linearGradient>
<linearGradient id="paint40_linear_88_131" x1="268.915" y1="318.114" x2="310.341" y2="318.114" gradientUnits="userSpaceOnUse">
<stop stop-color="#4D60A4"/>
<stop offset="1" stop-color="#4D60A4"/>
</linearGradient>
<linearGradient id="paint41_linear_88_131" x1="274.629" y1="301.341" x2="305.106" y2="301.341" gradientUnits="userSpaceOnUse">
<stop stop-color="#4D60A4"/>
<stop offset="1" stop-color="#4D60A4"/>
</linearGradient>
<linearGradient id="paint42_linear_88_131" x1="276.824" y1="345.745" x2="303.504" y2="345.745" gradientUnits="userSpaceOnUse">
<stop stop-color="#4D60A4"/>
<stop offset="1" stop-color="#4D60A4"/>
</linearGradient>
<linearGradient id="paint43_linear_88_131" x1="8.05767" y1="309.077" x2="36.3524" y2="309.077" gradientUnits="userSpaceOnUse">
<stop stop-color="#4D60A4"/>
<stop offset="1" stop-color="#4D60A4"/>
</linearGradient>
<linearGradient id="paint44_linear_88_131" x1="3.65872" y1="324.708" x2="42.8839" y2="324.708" gradientUnits="userSpaceOnUse">
<stop stop-color="#4D60A4"/>
<stop offset="1" stop-color="#4D60A4"/>
</linearGradient>
<linearGradient id="paint45_linear_88_131" x1="10.0264" y1="353.69" x2="37.2409" y2="353.69" gradientUnits="userSpaceOnUse">
<stop stop-color="#4D60A4"/>
<stop offset="1" stop-color="#4D60A4"/>
</linearGradient>
</defs>
</svg>
